<?xml version="1.0" encoding="iso-8859-1"?>
<!-- Generator: Adobe Illustrator 25.4.1, SVG Export Plug-In . SVG Version: 6.00 Build 0)  -->
<svg version="1.1" id="Layer_1" xmlns="http://www.w3.org/2000/svg" xmlns:xlink="http://www.w3.org/1999/xlink" x="0px" y="0px"
	 viewBox="0 0 260 260" style="enable-background:new 0 0 260 260;" xml:space="preserve">
<path style="fill:#F7F7F7;" d="M204.12,207.118c-0.619-0.002-1.239-0.004-1.858-0.006c-1.396,0-2.793,0.001-4.189,0.001
	c-1.549-0.001-3.098-0.003-4.648-0.004c-0.931,0.001-1.861,0.002-2.792,0.003c-1.55,0.001-3.1,0.001-4.65,0.002
	c-2.17-0.003-4.341-0.007-6.511-0.011c-1.243,1.51-2.935,0.991-4.51,1c-1.136,0.117-2.294-0.208-3.418,0.172
	c-1.971,0.253-3.965-0.524-5.927,0.141c-1.811-0.034-3.603-0.474-5.426-0.27c-1.736-0.27-3.436,0.016-5.133,0.351
	c-0.266,0.006-0.532,0.011-0.798,0.017c-1.96,0.034-3.909-0.253-5.87-0.199c-1.365-0.161-2.729-0.386-4.103-0.061
	c-1.157,0.149-2.241-0.254-3.354-0.448c-0.258-0.037-0.506-0.107-0.746-0.209c-0.231-0.148-0.386-0.351-0.468-0.612
	c-0.012-0.282,0.078-0.525,0.272-0.73c1.479-0.722,2.966-1.411,4.681-1.25c0.954,0.185,1.908,0.398,2.821-0.16
	c1.889-0.3,3.601,0.958,5.493,0.618c2.588-0.003,5.179,0.064,7.76-0.202c0.727,0.075,1.454,0.129,2.184,0.157
	c3.541,0.003,7.066-0.245,10.583-0.636c1.869-0.51,3.699,0.122,5.509,0.331c5.717,0.662,11.44,0.19,17.156,0.351
	c2.833-0.422,5.675-0.08,8.497,0.048c5.309,0.24,10.55-0.542,15.824-0.746c1.136,0.159,1.864,1.296,3.07,1.282
	c4.612,3.088,9.209,6.207,13.732,9.434c0.663,0.473,1.354,1.305,2.249,0.854c0.908-0.458,0.601-1.503,0.604-2.316
	c0.024-6.714,0.014-13.429,0.012-20.143c-0.001-2.118,0.675-4.251-0.128-6.358c0.085-6.649,0.419-13.295-0.11-19.936
	c0.248-1.768,0.236-3.546,0.236-5.324c0.001-27.828,0.02-55.655-0.039-83.483c-0.005-2.405,0.904-4.839-0.111-7.228
	c0.304-4.708,0.147-9.423,0.137-14.134c-0.029-13.985,0.14-27.97-0.091-41.951c0.108-1.649,1.544-3.502-0.734-4.79
	c-0.245-0.132-0.488-0.261-0.744-0.374c-1.716-0.937-3.59-0.853-5.445-0.854c-16.344-0.009-32.687,0.007-49.031-0.024
	c-1.102-0.002-2.359,0.425-3.253-0.684c1.003-0.548,2.101-0.447,3.179-0.447c18.254-0.006,36.509-0.01,54.763-0.007
	c3.372,0.001,3.455,0.092,3.457,3.568c0.008,13.521,0.009,27.042,0.013,40.562c0.001,16.413,0.001,32.826,0.187,49.24v30.658
	c-0.184,10.374-0.465,31.123-0.465,31.123s0,17.188,0.465,17.188v21.834c-0.181,5.11-0.181,10.219-0.18,15.329
	c-0.012,0.456-0.018,0.913-0.038,1.369c-0.07,1.576-0.69,2.144-2.156,1.173c-0.825-0.546-1.66-1.077-2.491-1.615
	c-3.254-2.738-6.807-5.041-10.413-7.281c-2.161-1.342-4.217-2.853-6.32-4.287c-2.944-0.006-8.831,0.138-8.831,0.138h-2.792
	C209.236,207.278,205.825,207.12,204.12,207.118z"/>
<path style="fill:#FDFDFD;" d="M180.858,8.733c18.464,0.003,36.929,0.001,55.393,0.017c1.284,0.001,2.67-0.279,3.676,0.906
	c-1.761,1.313-3.837,1.145-5.838,1.15c-13.56,0.039-27.12,0.017-40.681,0.019c-8.136,0.001-16.278-0.194-24.407,0.037
	c-24.245,0.688-48.493,0.317-72.739,0.437c-2.449,0.012-4.894-0.22-7.345-0.062c-0.883-0.202-1.384-0.712-1.341-1.661
	c0.445-1.242,1.517-1.386,2.611-1.457c1.687-0.11,3.386-0.046,5.06-0.328c2.223-0.175,4.405-0.093,6.604,0.466
	c2.109,0.537,4.261,0.386,6.286-0.575c0.7-0.475,1.48-0.348,2.25-0.31c3.668,0.591,7.356,0.152,11.033,0.211
	c3.01,0.048,6.041-0.219,8.998,0.586c0.981,0.267,2.014,0.093,2.864-0.164c1.65-0.498,2.99-0.133,4.331,0.721
	c5.272-0.001,10.543-0.002,15.815-0.003C162.572,8.725,171.715,8.729,180.858,8.733z"/>
<path style="fill:#CACACA;" d="M26.053,158.324v-19.514c0.419-2.013,0.419-4.027,0.42-6.04c-0.001-2.013-0.003-4.025-0.004-6.038
	c-0.002-5.264-0.004-10.529-0.005-15.793c0.001-2.168,0.003-4.335,0.055-6.503v-5.112c-0.05-4.799-0.051-9.598-0.051-14.397
	c0.004-0.623,0.008-1.247,0.012-1.87c0.142,0.008,0.285,0.016,0.427,0.023c1.129,0.882,0.709,2.14,0.71,3.242
	c0.026,25.23,0.019,50.46,0.02,75.69c0,16.471,0.007,32.941-0.015,49.412c-0.001,1.046,0.314,2.188-0.558,3.094
	c-1.707-0.104-1.252-1.456-1.259-2.379c-0.054-6.635-0.036-13.271-0.023-19.906c0.004-2.161-0.022-4.318-0.374-6.459
	c1.156-8.748,0.792-17.55,0.834-26.337C26.243,159.048,26.235,158.662,26.053,158.324z"/>
<path style="fill:#C1C1C1;" d="M23.542,88.664c-0.429-0.106-0.601-0.422-0.611-0.817c-0.01-0.419,0.18-0.755,0.648-0.707
	c0.429,0.044,0.617,0.393,0.619,0.795C24.199,88.349,24.007,88.643,23.542,88.664z"/>
<path style="fill:#F3F3F3;" d="M26.98,161.996c-0.024-26.306-0.049-52.612-0.073-78.917c0.003-15.043,0.121-30.088-0.07-45.128
	c-0.049-3.839-0.319-7.694-0.353-11.546c0.711-1.04-0.422-2.45,0.688-3.41c0.303,0.049,0.531,0.202,0.69,0.464
	c0.373,0.976,0.231,1.993,0.232,2.991c0.011,14.159,0.011,28.318,0,42.476c-0.001,1.78,0.014,3.553,0.38,5.307
	c-0.864,27.117-0.151,54.243-0.366,81.364c-0.016,2.07,0.292,4.167-0.338,6.207C27.562,162.091,27.298,162.155,26.98,161.996z"/>
<path style="fill:#DEDEDE;" d="M26.936,23.142c-0.044,1.102,0.124,2.234-0.452,3.262c-0.004-5.422-0.009-10.845-0.013-16.268
	c0.153-0.621,0.305-1.242,0.458-1.863c0.621,0.48,0.693,1.161,0.696,1.873c0.016,3.701,0.02,7.402-0.002,11.103
	C27.619,21.965,27.503,22.633,26.936,23.142z"/>
<path style="fill:#DEDEDE;" d="M78.832,8.439c0,0-2.728,1.052-6.469,1.052c-3.164,0-11.872,0.061-11.872,0.061"/>
<path style="fill:#DEDEDE;" d="M34.667,12.976c-0.786-0.517-1.578-1.038-2.369-1.554c-0.279-0.186-0.619-0.354-0.754-0.633
	C32.624,11.459,33.639,12.227,34.667,12.976z"/>
<path style="fill:#DEDEDE;" d="M46.153,20.716c-2.625-1.834-5.375-3.695-8.186-5.557C40.82,16.965,43.57,18.878,46.153,20.716z"/>
<path style="fill:#DEDEDE;" d="M34.481,9.672c-0.786,0-1.573,0.009-2.359,0.056c0.195-0.047,0.41-0.042,0.614-0.051
	c0.54-0.019,1.084-0.009,1.624-0.009C34.36,9.668,47.107,9.668,34.481,9.672z"/>
<path style="fill:#DEDEDE;" d="M47.107,9.668"/>
<line style="fill:#DEDEDE;" x1="78.832" y1="8.616" x2="72.363" y2="9.668"/>
<path style="fill:#FCFCFC;" d="M29.247,8.674c0.924,0.531,1.944,0.451,2.948,0.451c12.781,0,25.562,0.003,38.343-0.022
	c1.155-0.002,2.308-0.208,3.465-0.292c0.902-0.066,1.861-0.3,2.943,1.146l-44.596,0c-0.115,0.4-0.105,0.364-0.22,0.764
	c7.622,4.813,15.087,9.842,22.08,15.54c-8.621-4.94-16.39-11.179-24.957-16.188c-2.403,0.737-1.115,2.605-1.241,4.045
	c0.186,2.375,0.062,4.75,0.075,7.122c0.004,0.703,0.043,1.452-0.756,1.869c-0.171-0.109-0.224-0.144-0.394-0.253
	c-0.002-4.885-0.005-9.769-0.007-14.654C27.778,7.982,28.458,8.598,29.247,8.674z"/>
<path style="fill:#090909;" d="M77.555,42.666c0.032-11.335,0.065-22.67,0.097-34.005c0.004-1.599,0.001-3.199,0.001-5.328
	c2.756,1.899,5.105,3.552,7.494,5.145c0.81,0.54,1.533,1.347,2.666,1.205c0.353,0.301,0.705,0.602,1.058,0.903
	c2.938,0.353,5.044,2.278,7.362,3.834c7.061,4.739,14.003,9.65,21,14.48c0.636,0.439,1.269,0.884,1.819,1.434
	c13.828,8.063,26.941,17.285,40.837,25.232c9.808,5.609,19.33,11.668,28.854,17.731c1.681,1.07,3.076,1.012,4.667-0.142
	c4.883-3.539,9.805-7.026,14.816-10.382c1.08-0.723,2.167-1.977,3.702-0.762c0.542,0.947-0.128,1.575-0.596,2.256
	c-0.533,0.606-1.122,1.161-1.656,1.768c-4.706,4.805-8.881,10.115-13.894,14.626c-2.223,2.001-4.369,4.148-7.423,4.907
	c-2.76-0.31-4.137-2.637-6.002-4.213c-0.594-0.502-1.112-0.984-1.86-1.185c-2.705-1.204-4.669-3.5-7.28-4.88
	c-1.895-1.002-3.621-2.333-5.486-3.421c-0.721-1.442-2.365-1.591-3.495-2.464c-0.66-0.509-1.452-0.846-2.033-1.472
	c-0.724-0.776-1.4-0.646-2.23-0.065c-5.024,3.515-10.159,6.876-14.833,10.867c-2.921,1.783-5.956,3.406-8.318,5.962
	c-1.456,1.083-1.737,2.191-0.073,3.345c7.691,4.936,15.41,9.833,22.737,15.299c0.812,0.606,1.751,0.4,2.463,0.971
	c3.177,2.406,6.546,4.532,9.84,6.768c0.853,0.579,1.651,1.139,1.553,2.331c0.643,4.922,0.261,9.861,0.285,14.789
	c0.019,3.924,0.319,7.862-0.255,11.773c-0.689,1.164-1.783,1.334-2.781,0.698c-5.665-3.605-12.625-3.488-18.498-6.508
	c-1.633-0.84-3.379-1.529-5.146-2.104c-2.783-0.906-4.587-0.254-6.067,2.284c-1.06,1.819-1.607,3.839-2.088,5.873
	c-0.192,0.811-0.174,1.906-1.26,1.954c-1.298,0.058-1.268-1.248-1.416-2.044c-0.518-2.791-0.263-5.652-0.588-8.47
	c-0.331-1.163-0.087-2.333-0.055-3.501c0.021-0.798-0.026-1.595,0.009-2.392c0.097-1.199-0.166-2.392-0.072-3.591
	c0.063-0.793,0.094-1.587,0.095-2.383c-0.005-0.793-0.012-1.586-0.14-2.372c-0.105-0.931,0.205-1.84,0.147-2.769
	c0.018-0.921,0.016-1.842,0.017-2.763c0.045-0.883-0.115-1.781,0.188-2.645c1.177-1.128,1.907-0.479,2.474,0.654
	c0.609,1.218,0.578,2.544,0.583,3.86c0.005,1.158-0.015,2.317,0.18,3.468c0.273,1.609,0.99,2.583,2.795,2.859
	c3.059,0.468,5.455,2.441,8.057,3.947c3.737,2.163,7.319,4.742,11.611,5.682c7.513,1.647,8.444-0.16,7.188-6.898
	c-0.51-2.735-2.442-4.941-3.906-7.223c-1.001-1.561-2.399-2.974-3.522-4.539c-1.531-2.134-3.607-3.326-6.289-3.357
	c-1.739-0.02-3.246-0.608-4.018-2.232c-0.957-2.012-2.399-3.529-4.068-4.966c-3.806-3.274-7.939-6.122-11.834-9.277
	c-0.529-0.429-1.127-0.453-1.736-0.537c-0.979-0.527-1.799-1.186-1.988-2.371c-0.142-0.324-0.363-0.598-0.571-0.878
	c-1.419-2.627-3.914-4.133-6.231-5.767c-4.164-2.937-8.392-5.783-12.465-8.848c-1.072-0.807-1.924-0.913-1.945,0.728
	c-0.11,8.409-0.225,16.821,0.075,25.227c0.045,1.247,0.197,2.629,1.104,3.682c0.896,0.368,1.481-0.219,2.096-0.67
	c5.056-3.707,9.993-7.556,14.351-12.088c0.601-0.625,1.258-1.137,2.147-1.272c0.229,0.016,0.442,0.086,0.64,0.2
	c1.131,1.024,0.798,2.178-0.017,3.063c-2.907,3.157-5.778,6.347-8.883,9.322c-2.949,2.824-6.011,5.498-9.335,7.87
	c-0.629,0.449-1.269,0.887-1.613,1.622c-0.097,0.217-0.194,0.429-0.288,0.647c-0.672,2.116-0.235,4.282-0.312,6.423
	c-0.095,28.863-0.148,57.725,0.063,86.585c0.043,5.861,0.288,11.738,0.361,17.61c0.011,0.903-0.237,2.026,0.73,2.532
	c1.092,0.572,1.88-0.412,2.659-0.974c7.408-5.345,14.784-10.736,22.233-16.025c1.014-0.72,1.948-1.91,3.496-1.264
	c0.245,0.152,0.419,0.363,0.522,0.631c-0.016,0.107-0.036,0.212-0.059,0.317c0.411,0.517,0.532,1.063,0.174,1.659
	c-2.291,3.973-4.086,8.264-7.652,11.404c-5.281,4.65-10.917,8.824-16.712,12.8c-1.595,1.095-3.062,2.397-5.219,1.868
	c-0.856-0.298-1.208-1.321-2.154-1.496c-0.2-0.069-0.375-0.182-0.529-0.324c-0.292-0.273-0.588-0.544-0.909-0.785
	c-0.305-0.234-0.619-0.455-0.952-0.649c-0.315-0.212-0.622-0.437-0.949-0.633c-0.373-0.305-0.737-0.622-1.13-0.903
	c-0.491-0.516-1.085-0.87-1.751-1.109c-0.748-0.591-1.736-0.7-2.509-1.243c-0.71-1.843-2.839-1.629-4.032-2.772
	c-0.849-0.811-1.862-1.395-2.833-2.04c-1.226-0.65-2.259-1.636-3.628-2.039c-0.708-1.188-1.798-1.88-3.037-2.411
	c-2.084-0.894-3.932-2.179-5.73-3.544c-3.937-1.836-4.654-2.078-4.592-7.186c0.666-1.036,0.568-2.21,0.586-3.352
	c0.056-3.452,0.017-6.904,0.025-10.358c0-31.544-0.061-63.086,0.046-94.628c0.025-7.334,0.578-14.666,0.418-22.009
	c-0.115-5.247,0.122-10.49-0.377-15.744C75.956,55.194,77.885,48.98,77.555,42.666z"/>
<path style="fill:#E3E3E3;" d="M118.562,31.013c-10.071-6.557-19.899-13.467-29.692-20.427c1.827-0.402,3.677-0.459,5.543-0.458
	c19.064,0.012,38.136,0.339,57.191-0.084c29.442-0.653,58.882-0.136,88.321-0.389c0.155,0.008,0.31,0.015,0.465,0.023
	c0.289,1.7-0.104,3.522,0.917,5.091c0.002,18.897,0.003,37.795,0.005,56.692c-0.091,0.126-0.223,0.255-0.23,0.397
	c-0.137,2.886-1.977,4.049-4.499,4.824c-2.531,0.778-4.627,0.572-6.998-0.825c-3.107-1.83-5.53-4.003-7.111-7.286
	c-1.213-2.517-3.156-4.593-5.391-6.292c-1.386-1.054-2.849-2.223-4.83-1.413c-1.131,0.388-1.944-0.327-2.76-0.868
	c-21.488-14.229-43.075-28.31-64.231-43.033c-2.786-1.939-3.365-1.967-6.143,0.114c-5.575,4.176-11.238,8.233-16.767,12.469
	C121.221,30.416,120.043,31.085,118.562,31.013z"/>
<path style="fill:#DFDFDF;" d="M212.238,60.308c0.581-1.355,1.56-1.229,2.694-0.78c3.715,1.471,6.312,4.319,8.206,7.575
	c1.994,3.428,4.21,6.291,7.86,8.099c1.767,0.875,3.281,1.015,5.068,0.474c2.377-0.72,4.2-2.084,5.46-4.213
	c0,32.054,0,64.109,0,96.163c-0.295,0.386-0.281,0.871-0.411,1.308c-0.586,1.968-1.104,2.118-2.996,1.343
	c-3.294-1.348-5.614-4.137-8.658-5.755c-2.911-1.548-5.465-3.485-7.923-5.594c-2.357-2.023-4.876-3.749-7.58-5.301
	c-4.643-2.665-7.707-6.778-9.501-11.782c-0.334-0.931-1.272-1.283-1.509-2.186c-0.141-0.777-0.296-1.552-0.022-2.331
	c0.285-0.553,0.386-1.11,0.41-1.759c0.325-8.528-0.077-16.985-2.245-25.29c-0.038-0.146-0.007-0.308-0.001-0.46
	c0.577-1.19,1.46-2.29,0.985-3.775c-0.239-0.748,0.213-1.332,0.706-1.803c1.728-1.652,2.73-3.734,3.513-5.924
	c2.384-6.668,5.357-13.134,6.383-20.257c0.532-3.699,0.006-7.305-0.614-10.842c-0.324-1.847-0.222-3.509-0.044-5.263
	C211.844,61.373,211.764,60.803,212.238,60.308z"/>
<path style="fill:#D2D2D2;" d="M241.305,188.064c0.008,9.59,0.025,19.179,0.007,28.769c-0.001,0.718,0.394,1.713-0.488,2.087
	c-0.672,0.285-1.259-0.447-1.814-0.831c-5.283-3.649-10.552-7.317-15.825-10.979c-2.574-3.04-2.859-6.797-3.205-10.502
	c-0.203-2.183-0.433-4.31-1.725-6.17c-2.981-4.294-4.819-9.164-6.955-13.878c-1.538-3.394-3.307-6.66-5.326-9.771
	c-2.871-4.424-4.209-9.377-5.279-14.422c-0.187-0.882-0.612-1.655-0.75-2.528c0.289-1.359,0.448-2.777,1.697-3.691
	c1.37-0.37,2.267,0.16,2.663,1.492c2.702,9.105,9.754,14.897,16.365,20.879c3.561,3.222,6.853,6.667,10.203,10.072
	c1.782,1.812,4.092,3.087,5.432,5.343c0.118,0.198,0.34,0.349,0.409,0.558C237.448,186.712,238.8,188.122,241.305,188.064z"/>
<path style="fill:#898989;" d="M96.205,223.9c1.394,0.913,2.787,1.827,4.181,2.74c0.223,1.286-0.704,1.299-1.561,1.438
	c-2.989,0.484-5.991,0.674-9.022,0.62c-5.268-0.094-10.536-0.138-15.745,0.902c-1.067,0.213-2.133,0.389-3.146,0.792
	c-3.527,1.402-6.928,3.092-10.258,4.882c-4.87,2.618-5.434,7.322-1.596,11.32c2.77,2.885,6.274,4.472,9.959,5.758
	c6.254,2.183,12.725,3.497,19.312,3.638c7.006,0.15,13.804-1.075,20.305-4.084c7.534-3.488,14.753-7.542,22.109-11.353
	c4.392-2.276,8.859-4.45,13.519-6.155c2.922-1.069,5.669-2.493,8.472-3.812c2.39-1.126,4.171-2.927,5.711-4.995
	c1.675-2.25,1.538-4.718,0.336-7.031c-1.093-2.103-2.457-4.081-4.517-5.459c-2.056-1.375-3.714-3.233-5.611-4.804
	c-0.371-0.307-0.641-0.686-0.334-1.202c2.06-0.403,4.026,0.37,6.044,0.485c2.443,2.444,4.865,4.91,7.255,7.402
	c4.164,4.342,3.185,11.253-0.567,14.769c-4.684,4.39-10.442,6.649-16.099,9.16c-4.743,2.105-9.412,4.351-13.927,6.89
	c-8.385,4.715-16.778,9.405-25.644,13.181c-4.046,1.723-8.379,2.314-12.682,2.609c-9.251,0.633-18.282-0.856-27.17-3.427
	c-4.705-1.361-9.197-3.192-13.579-5.346c-6.676-3.281-9.515-10.915-6.264-16.956c1.295-2.407,3.437-4.023,5.639-5.418
	c9.105-5.767,19.071-8.193,29.862-7.64c3.911,0.201,7.824,0.282,11.735,0.596C94.048,223.489,95.013,224.495,96.205,223.9z"/>
<path style="fill:#7F7F7F;" d="M148.316,207.094c4.46,3.054,8.922,6.204,11.641,10.987c2.253,3.963,0.515,8.702-3.899,11.864
	c-2.788,1.998-5.95,3.326-9.1,4.6c-8.475,3.427-16.639,7.455-24.618,11.914c-6.355,3.552-12.912,6.806-19.841,9.05
	c-5.165,1.673-10.633,1.843-16.08,1.523c-6.06-0.356-11.938-1.589-17.679-3.507c-4.698-1.569-8.822-3.916-12.099-7.831
	c-2.609-3.116-0.968-8.941,1.789-10.542c7.334-4.259,14.936-7.783,23.737-7.642c6.085,0.098,12.188,0.292,18.218-0.871
	c0.764,0.491,1.528,0.981,2.292,1.472c-0.284,2.45-2.439,2.145-3.972,2.541c-7.102,1.836-14.512,2.085-21.583,4.147
	c-2.333,0.68-4.538,1.536-6.546,2.896c-4.043,2.738-3.977,6.645,0.2,9.23c3.4,2.104,7.141,3.443,11.041,4.123
	c5.081,0.886,10.244,2.285,15.386,1.01c4.589-1.138,9.274-2.143,13.448-4.646c1.614-0.967,3.548-1.369,5.273-2.207
	c7.528-3.657,14.838-7.771,22.637-10.862c3.195-1.266,6.402-2.507,9.584-3.802c2.794-1.137,5.35-2.77,7.443-4.997
	c1.57-1.67,1.778-3.762,1.007-5.741c-0.833-2.139-1.814-4.31-3.866-5.68c-2.476-1.653-4.188-4.235-6.872-5.634
	c-0.464-0.138-0.943-0.228-1.393-0.412c-0.212-0.14-0.352-0.332-0.422-0.576C145.398,206.64,146.88,207.108,148.316,207.094z"/>
<path style="fill:#D8D8D8;" d="M241.305,188.064c-2.246,2.437-3.059,2.319-4.554-0.866c-0.968-2.062-2.343-3.713-3.929-5.361
	c-7.987-8.299-17.109-15.449-24.582-24.257c-2.127-2.507-3.608-5.395-4.645-8.512c-0.293-0.88-0.54-1.792-1.36-2.372
	c-1.462-1.839-0.634-5.821,1.444-6.952c1.94,0.881,1.974,3.02,2.854,4.554c2.382,4.15,5.49,7.409,9.831,9.444
	c2.07,0.97,3.573,2.66,5.331,4.027c2.6,2.022,4.998,4.289,8.112,5.643c2.758,1.2,4.585,3.801,7.311,5.22
	c1.999,1.041,3.205,1.059,4.197-1.007C241.31,174.438,241.308,181.251,241.305,188.064z"/>
<path style="fill:#CCCCCC;" d="M200.894,149.963c0.676,2.282,1.347,4.564,2.028,6.844c1.131,3.79,2.685,7.364,4.857,10.707
	c2.866,4.41,5.107,9.168,7.022,14.059c0.995,2.543,2.352,4.869,3.839,7.118c1.807,2.734,2.443,5.646,2.608,8.926
	c0.161,3.188,1.254,6.329,1.938,9.491c-0.786-0.332-1.573-0.664-2.359-0.996c-4.392-0.422-8.795-0.051-13.189-0.195
	c-1.643-0.484-2.323-1.648-2.31-3.289c0.02-2.633-0.214-5.218-0.808-7.808c-0.41-1.788-0.311-3.703,0.174-5.521
	c1.012-3.79,0.595-7.523-0.438-11.214c-1.579-5.646-3.652-11.154-4.418-17.022c-0.335-2.57,0.038-5.271-1.259-7.688
	C198.834,151.89,198.766,150.181,200.894,149.963z"/>
<path style="fill:#626262;" d="M144.043,207.502c0.184,0.019,0.368,0.039,0.552,0.058c1.933,2.168,3.962,4.236,6.302,5.982
	c0.754,0.985,1.37,2.069,2.164,3.017c3.453,4.126,0.458,9.121-3.245,11.089c-4.889,2.598-10.211,4.169-15.197,6.569
	c-4.093,1.97-8.117,4.077-12.211,6.014c-4.923,2.328-9.972,4.455-15.124,6.313c-2.161,0.779-4.215,1.902-6.472,2.482
	c-4.89,1.256-9.524,0.502-13.87-1.935c-4-2.243-3.923-6.021,0.105-9.08c3.214-2.441,6.969-3.801,10.706-5.129
	c2.087-0.742,4.25-1.248,6.137-2.472c0.563-0.365,1.169-0.346,1.785-0.158c0.247,0.203,0.495,0.406,0.742,0.609
	c0.455,1.755-1.176,1.839-2.045,2.27c-3.328,1.651-6.511,3.44-9.126,6.16c-2.456,2.554-2.124,4.502,1.161,5.711
	c0.751,0.276,1.505,0.504,2.335,0.619c3.027,0.419,5.656-0.707,8.285-1.865c3.116-1.374,6.37-2.414,9.418-3.946
	c3.885-1.954,7.769-3.931,11.691-5.783c3.587-1.695,6.781-4.341,10.879-4.913c0.155-0.022,0.321-0.021,0.449-0.105
	c2.833-1.861,6.263-2.476,9.082-4.374c2.017-1.357,2.829-3.582,1.924-5.777c-0.825-2.001-1.61-4.062-3.742-5.121
	c-1.987-1.687-3.296-4.054-5.526-5.499c-0.19-0.12-0.346-0.274-0.464-0.466c-0.067-0.224-0.026-0.427,0.121-0.609
	C141.97,206.803,142.959,207.597,144.043,207.502z"/>
<path style="fill:#3A3A3A;" d="M140.857,207.161c0.005,0.131,0.013,0.262,0.022,0.392c1.979,2.785,3.911,5.61,5.592,8.578
	c1.501,2.649-0.068,6.116-3.218,7.73c-5.875,3.011-11.993,5.572-17.614,9.047c-5.171,3.196-10.851,5.215-16.368,7.623
	c-1.239,0.541-2.63,0.527-3.844,1.209c-1.045,0.587-1.929-0.035-2.574-0.838c-0.978-1.218-1.051-2.724-0.169-3.863
	c1.402-1.81,3.267-3.228,4.836-4.914c0.197-0.212,0.591-0.078,0.891,0.013c0.126,0.004,0.252,0.017,0.376,0.039
	c0.277,0.373,0.682,0.817,0.65,1.2c-0.204,2.418,1.297,2.099,2.873,1.988c3.094-0.217,5.674-1.663,8.098-3.355
	c5.137-3.586,10.472-6.846,15.87-10.013c0.801-0.47,1.577-0.978,2.308-1.548c2.447-1.911,2.916-3.513,1.862-6.484
	c-0.809-2.281-1.104-4.549-0.042-6.833C140.559,207.093,140.71,207.102,140.857,207.161z"/>
<path style="fill:#A1A1A1;" d="M170.675,208.229c-4.046-0.972-3.879-0.932-7.925-1.904c-0.076-1.759,1.054-2.014,2.165-1.917
	c0.942,0.082,1.84,0.064,2.741-0.164c1.763,0.73,2.886,0.004,4.196-1.298c3.081-3.06,5.792-6.455,8.902-9.506
	c2.258-2.215,4.737-4.789,5.313-8.306c3.669-5.464,5.509-11.649,7.082-17.94c0.046-0.242,0.112-0.478,0.195-0.71
	c0.537-0.878,0.472-2.388,2.16-2.055c1.084,2.043,0.251,4.122-0.068,6.111c-1.922,11.991-7.535,22.337-14.605,32.002
	c-0.901,1.231-1.938,2.326-3.27,3.11C175.239,205.991,172.824,204.706,170.675,208.229z"/>
<path style="fill:#272727;" d="M140.405,207.133c-0.153,2.44,0.307,4.72,1.347,6.971c1.198,2.591,0.475,5.051-1.82,6.785
	c-4.704,3.555-10.181,5.893-14.968,9.3c-4.536,3.228-9.529,5.369-14.776,7.057c-1.6,0.515-2.436-0.004-2.229-1.704
	c0.138-1.138,0.542-2.243,0.828-3.362c0.712,0.342,1.393,0.725,1.866,1.387c1.735,0.899,3.192,0.591,4.834-0.541
	c6.148-4.236,12.197-8.608,18.272-12.944c2.144-1.53,3.573-3.632,4.042-6.282c0.327-1.847,0.981-3.584,1.681-5.31
	c0.172-0.502,0.345-1.003,0.517-1.505C140.149,206.998,140.284,207.048,140.405,207.133z"/>
<path style="fill:#858585;" d="M160.867,206.091c-2.637,0.003-5.273,0.006-7.91,0.009c-0.305-0.342-0.292-0.706-0.078-1.085
	c0.687-0.71,1.556-0.776,2.465-0.689c0.903,0.058,1.83,0.139,2.606-0.444c4.701-3.532,10.149-5.831,14.919-9.322
	c7.163-5.243,12.137-12.041,16.021-19.819c0.135-0.269,0.132-0.601,0.206-0.902c0.909-2.281,1.914-4.52,2.999-6.718
	c0.359-0.728,0.61-1.884,1.934-1.377c0.103,0.482,0.221,0.965-0.138,1.4v0c-1.68,5.191-3.315,10.416-5.951,15.215
	c-3.297,6.001-7.8,11.038-13.111,15.341c-1.742,1.412-3.103,3.193-4.851,4.611c-2.19,1.775-4.328,3.432-7.356,3.308
	C162.04,205.595,161.372,205.643,160.867,206.091z"/>
<path style="fill:#949494;" d="M160.867,206.091c0.227-0.204,0.459-0.591,0.682-0.586c4.379,0.099,6.866-3.32,9.69-5.659
	c4.604-3.813,9.179-7.749,12.768-12.676c4.008-5.503,6.457-11.71,8.818-17.991c0.267-0.711,0.707-1.358,1.066-2.035
	c-0.726,4.249-1.98,8.335-3.847,12.224c-1.022,2.129-2.085,4.239-3.129,6.358c-4.283,7.161-10.634,12.524-16.182,18.585
	c-0.679,0.741-1.724,0.729-2.42,1.376c-1.851,0.148-3.748-0.313-5.553,0.424C162.128,206.103,161.498,206.097,160.867,206.091z"/>
<path style="fill:#505050;" d="M147.386,206.125c-0.933,0.003-1.865,0.007-2.798,0.01c-0.598-0.607-0.605-1.282-0.001-1.819
	c1.041-0.925,1.134-2.096,1.074-3.348c0.779-1.012,1.636-1.908,3.015-2.036c2.181,1.305,3.233,4.455,2.199,6.569
	C149.751,205.922,148.521,205.759,147.386,206.125z"/>
<path style="fill:#2A2A2A;" d="M146.421,201.501c0.709,2.065-0.389,3.417-1.832,4.634c-1.51,0.177-3.019,0.354-4.529,0.531
	c-0.227-0.032-0.453-0.063-0.68-0.095c-0.201-0.438-0.368-0.951-0.029-1.319c1.69-1.836,3.667-3.289,6.023-4.162
	C145.736,200.957,146.098,201.287,146.421,201.501z"/>
<path style="fill:#D2D2D2;" d="M207.374,205.698c3.665,0.001,7.33,0.002,10.995,0.003c0.843,0,1.684,0.008,2.457,0.413
	c-8.207,0.001-16.413,0.003-24.62,0.004c-0.137-0.285-0.095-0.542,0.124-0.771c0.336-0.296,0.77-0.377,1.172-0.533
	C200.838,204.617,204.23,203.778,207.374,205.698z"/>
<path style="fill:#CCCCCC;" d="M196.219,205.704c-0.003,0.138-0.006,0.277-0.011,0.415c-7.599-0.003-15.199-0.005-22.798-0.008
	c1.358-0.592,2.799-0.321,4.206-0.408c1.435-1.283,3.211-1.078,4.934-1.161c1.454-0.07,2.909,0.309,4.359-0.034
	c2.24-0.013,4.48,0.017,6.717,0.092C194.601,204.633,195.699,204.536,196.219,205.704z"/>
<path style="fill:#DFDFDF;" d="M241.308,14.77c-1.543-0.592-0.906-3.232-3.157-3.136c0.449-1.149,1.621-1.232,2.241-1.955
	C242.097,11.125,241.009,13.072,241.308,14.77z"/>
<path style="fill:#767676;" d="M147.386,206.125c1.015-0.531,2.118-0.749,3.238-0.907c0.634-0.646,1.315-0.969,2.14-0.313
	c0.07,0.116,0.14,0.233,0.209,0.349c-0.005,0.282-0.011,0.564-0.016,0.845C151.1,206.108,149.243,206.117,147.386,206.125z"/>
<path style="fill:#E5E5E5;" d="M95.308,9.189c3.154-0.949,6.387-0.244,9.577-0.44c1.144-0.07,2.296-0.006,3.445-0.003
	c-3.31,0.934-6.693,0.246-10.036,0.446C97.302,9.251,96.303,9.193,95.308,9.189z"/>
<path style="fill:#A7A7A7;" d="M26.01,185.728c-0.001-2.324-0.003-4.648-0.004-6.972c0.001-5.76-0.001-11.52,0.006-17.28
	c0.001-1.07-0.104-2.161,0.458-3.152c-0.004,9.136-0.009,18.271-0.013,27.407C26.308,185.729,26.159,185.728,26.01,185.728z"/>
<path style="fill:#DDDDDD;" d="M76.764,208.079c-0.816-0.872-1.866-0.964-2.982-0.962c-8.59,0.015-17.18,0.026-25.77-0.008
	c-1.535-0.006-2.862,0.364-4.124,1.247c-4.816,3.37-9.663,6.696-14.507,10.026c-0.681,0.468-1.348,1.435-2.167,1.085
	c-0.974-0.417-0.317-1.517-0.354-2.316c-0.039-0.848,0.005-1.7,0.013-2.55c0.02-15.14,0.039-30.28,0.062-45.42
	c0.004-2.394,0.028-4.789,0.044-7.184c0.13,0.002,0.26,0.002,0.39-0.002c1.123,0.777,0.71,1.961,0.712,2.978
	c0.029,14.036,0,28.072,0.037,42.107c0.006,2.453,0.294,4.895,1.422,7.126c1.126,0.654,1.942-0.101,2.737-0.657
	c3.224-2.251,6.53-4.387,9.684-6.734c1.749-1.301,3.606-1.849,5.799-1.835c6.311,0.042,12.606,0.865,18.919,0.463
	c2.728-0.174,5.518-0.247,7.997-1.667c1.016-0.956,1.3-2.128,1.353-3.505c0.078-2.037-0.471-4.123,0.368-6.115
	c0.219-0.19,0.453-0.212,0.703-0.066c0.026,4.248,0.056,8.496,0.073,12.743C77.176,207.282,77.241,207.776,76.764,208.079z"/>
<path style="fill:#D5D5D5;" d="M28.339,217.85c-1.561-0.467-0.9-1.782-0.903-2.699c-0.046-16.481-0.033-32.961-0.035-49.442
	c0-1.238-0.02-2.476-0.032-3.714c0.019-29.249,0.039-58.497,0.058-87.745c0.293-0.158,0.572-0.136,0.838,0.063
	c1.187,1.579,0.565,3.515,1.036,5.237c-0.81,6.311-0.033,12.644-0.268,18.963c-0.057,1.535,0.031,3.07,0.273,4.592
	c0.142,1.926,0.241,3.841-0.509,5.697c-0.159,0.394-0.21,0.855-0.161,1.326c0.798,7.785,0.178,15.597,0.428,23.393
	c0.017,0.54,0.104,1.074,0.158,1.613c-0.752,2.729-0.866,5.473-0.33,8.266c0.215,1.118,0.134,2.283,0.134,3.428
	c0.001,8.253,0,16.506,0,24.758c0,1.621,0.019,3.24,0.27,4.846c0.208,2.481,0.138,4.946-0.453,7.376
	c-0.221,0.91-0.342,1.829-0.267,2.76c0.717,8.881,0.324,17.78,0.458,26.67C29.058,214.83,28.692,216.332,28.339,217.85z"/>
<path style="fill:#DEDEDE;" d="M27.855,74.231c-0.142,0.005-0.285,0.011-0.427,0.018c-0.008-17.036-0.017-34.073-0.025-51.109
	c0.012-3.245,0.025-6.49,0.037-9.735c1.564,1.683,1.469,3.85,1.535,5.882c0.147,4.537,0.045,9.08,0.05,13.621
	c0.001,1.541,0.034,3.078,0.262,4.605c-0.504,3.981-0.377,7.975-0.27,11.971c0.043,1.606,0.034,3.211,0.269,4.806
	c0.138,1.234-0.158,2.4-0.371,3.611c-0.496,2.812,0.248,5.63,0.38,8.45C29.637,69.127,28.966,71.719,27.855,74.231z"/>
<path style="fill:#D5D5D5;" d="M27.876,37.714c-0.001-6.996,0-13.993-0.007-20.989c-0.001-1.071,0.108-2.162-0.429-3.163
	c0.439-1.179-1.308-3.569,1.813-3.261c-1.419,2.319-0.855,5.625,1.456,7.147c2.411,1.587,4.551,3.427,6.439,5.59
	c1.135,1.3,2.496,2.294,4.085,2.993c2.885,1.27,4.942,3.686,7.426,5.508c5.643,4.14,11.313,8.29,16.033,13.548
	c1.273,1.418,2.938,2.138,4.888,2.392c2.964,0.386,5.804,1.154,7.294,4.611c0.729-3.31-0.258-6.367,0.682-9.268
	c-0.041,16.696,0.014,33.392-0.142,50.087c-0.307,32.776-0.178,65.552-0.223,98.329c-0.001,1.003-0.057,2.006-0.088,3.009
	c-0.118,0.053-0.137,0.062-0.255,0.115c-1.29-0.993-0.825-2.373-0.826-3.597c-0.025-27.041-0.07-54.082,0.045-81.123
	c0.014-3.349-1.296-6.515-0.873-9.857c0.042-0.451,0.079-0.903,0.119-1.354c0.596-3.788-0.019-7.612,0.326-11.408
	c-0.215-1.85,0.165-3.713-0.114-5.561c-0.225-2.193,0.254-4.369,0.169-6.556c-0.501-1.975-0.139-3.983-0.107-5.966
	c0.038-2.351-0.923-3.81-3.075-4.602c-0.507-0.186-0.985-0.482-1.517-0.567c-7.718-1.23-13.832-5.68-20.137-9.826
	c-4.384-2.883-8.95-5.48-14.12-6.833c-2.153-0.564-4.145-1.649-6.358-2.114c-1.345-0.283-1.845-1.417-2.056-2.732
	C28.083,40.754,28.299,39.203,27.876,37.714z"/>
<path style="fill:#FFFFFF;" d="M212.027,60.308c0.154,0.443,0.308,0.886,0.463,1.329c-0.249,0.268-0.553,0.43-0.915,0.484
	c-6.41,3.894-12.44,8.341-18.49,12.752c-1.441,1.051-2.366,1.162-3.985,0.099c-11.297-7.413-22.92-14.299-34.518-21.233
	c-11.725-7.01-23.185-14.463-34.755-21.73c-0.451-0.284-0.844-0.661-1.264-0.995c6.006-4.498,11.992-9.023,18.032-13.476
	c1.797-1.325,3.386-3.557,5.521-3.646c2.154-0.09,3.763,2.185,5.596,3.439C168.995,31.887,190.541,46.053,212.027,60.308z"/>
<path style="fill:#F9F9F9;" d="M200.894,149.963c-0.468,1.087-0.935,2.174-1.403,3.261c0.252,0.755-0.109,1.432-0.272,2.134
	c-0.108,0.414-0.314,0.788-0.482,1.178c-1.001,1.525-1.67,3.209-2.358,4.885c-0.353,0.583-0.975,0.909-1.382,1.444
	c-0.163,0.171-0.332,0.332-0.511,0.486c-2.172,1.539-3.593,3.797-5.419,5.668c-3.975,4.07-8.816,6.625-14.096,8.484
	c-1.399,0.493-2.613,0.443-3.057-1.328c-0.224-0.821-0.538-1.636-0.45-2.495c0.545-5.316-0.479-10.618-0.126-15.933
	c0.181-2.719-0.292-5.457,0.393-8.172c0.28-1.113-0.747-2.155-0.619-3.34c0.185-1.287,0.235-2.585,0.306-3.879
	c0.049-0.899,0.396-1.615,1.118-2.15c0.171-9.132,0.324-18.264-0.105-27.394c1.234-1.339,2.433-0.583,3.465,0.204
	c2.766,2.108,5.446,4.337,8.046,6.641c5.154,4.569,10.346,9.082,16.127,12.855c1.854,1.21,3.2,2.689,3.6,4.912
	c0.003,0.774,0.007,1.547,0.01,2.321c-0.481,2.317-0.962,4.635-1.443,6.952C201.788,147.785,201.341,148.874,200.894,149.963z"/>
<path style="fill:#F3F3F3;" d="M146.421,201.501c-2.504,1.472-4.974,2.991-7.041,5.07c-6.167,3.849-11.846,8.388-17.769,12.582
	c-3.595,2.546-7.127,5.182-10.696,7.765c-0.414,0.3-0.886,0.521-1.609,0.939c0-2.072,0.001-3.825,0-5.577
	c-0.013-34.401-0.027-68.801-0.037-103.202c0-0.54,0.037-1.081,0.057-1.621c0.691-0.614-0.06-2.299,1.623-2.178
	c0.57,0.214,0.849,0.639,0.902,1.23c0.104,0.536,0.281,1.067,0.113,1.62c-0.83,0.971-1.133,2-1.014,3.358
	c0.818,9.356,0.29,18.737,0.346,28.108c0.048,8.045,0.319,16.1-0.016,24.134c-0.39,9.345-0.388,18.683-0.392,25.71
	c0.019-4.602-0.06-11.521,0.037-18.44c0.013-0.918-0.16-1.951,0.896-2.423c1.073-0.479,1.734,0.196,2.289,1.026
	c0.363,0.542,0.904,0.809,1.543,0.937c4.089,0.818,8.191,1.582,12.115,3.062c0.794,0.3,1.64,0.469,2.503,0.473
	c2.489,0.012,3.949-1.461,3.66-3.909c-0.247-2.09,0.706-3.93,0.979-5.905c0.066-0.481,0.499-0.76,0.983-0.881
	c1.462,0.111,1.373,1.272,1.428,2.236c0.132,2.318,0.118,4.644,0.041,6.962c-0.078,2.344,0.864,3.987,2.873,5.151
	c3.62,2.098,6.973,4.613,10.529,6.815c0.819,0.507,1.861,0.907,1.912,2.14c-0.435,2.107-1.75,3.073-3.877,2.99
	C148.006,200.283,147.213,200.892,146.421,201.501z"/>
<path style="fill:#FFFFFF;" d="M203.668,137.423c-8.834-7.534-18.27-14.345-26.787-22.261c-1.26-1.171-2.751-1.975-4.45-2.352
	c-3.707-2.449-7.415-4.897-11.122-7.346c-4.877-4.221-3.777-10.565,2.093-13.958c0.834-0.482,1.758-0.801,2.662-0.471
	c1.769,0.644,3.516,0.419,5.259,0.062c6.557-1.343,13.167-1.594,19.821-1.057c0.395,0.032,0.76-0.115,1.134-0.198
	c0.73-0.141,1.257,0.147,1.625,0.767c0.909,0.89,1.208,2.272,2.381,2.955c0.976,1.419,1.259,3.192,2.333,4.563
	c1.814,3.586,3.813,7.12,3.207,11.386c1.751,5.888,2.415,11.955,2.646,18.047C204.594,130.843,204.362,134.17,203.668,137.423z"/>
<path style="fill:#080808;" d="M133.426,90.034c3.344,0.044,5.202,2.798,7.684,4.353c2.392,1.498,4.352,3.666,6.619,5.386
	c1.774,1.346,3.202,2.878,4.077,4.939c0.459,1.08,1.421,1.891,2.536,1.711c3.601-0.582,5.838,1.483,7.772,3.911
	c2.501,3.141,5.151,6.264,7.024,9.774c1.6,2.998,1.423,6.598,0.671,9.967c-0.219,0.98-1.358,1.168-2.311,1.252
	c-4.124,0.364-8.001-0.382-11.602-2.494c-3.733-2.19-7.492-4.334-11.248-6.484c-1.435-0.821-2.936-1.407-4.646-1.09
	c-1.334,0.247-1.758-0.47-1.928-1.665c-0.305-2.148-0.511-4.292-0.475-6.466c0.025-1.483-0.129-2.954-1.339-4.051
	c-0.783-0.403-0.681-1.154-0.728-1.847c0.474-5.196-1.215-10.078-2.219-15.056C133.163,91.419,132.701,90.717,133.426,90.034z"/>
<path style="fill:#FBFBFB;" d="M192.48,90.501c-1.32,0.583-2.722,0.479-4.104,0.454c-6.645-0.119-13.239,0.245-19.704,1.95
	c-0.434,0.114-1.06,0.282-1.339,0.076c-2.969-2.191-4.581,0.42-6.247,1.929c-1.953,1.768-1.944,4.278-1.29,6.685
	c0.361,1.329,1,2.583,1.513,3.87c-8.524-5.356-16.872-10.977-25.111-16.758c-0.627-1.019-0.244-1.7,0.675-2.309
	c9.003-5.964,18.701-9.551,29.696-8.623c3.548,0.299,7.032,1.054,10.526,1.72c1.291,0.246,2.592,0.558,3.806-0.279
	c2.791,1.578,4.948,3.935,7.361,5.977c1.238-0.215,1.764,0.717,2.393,1.482c0.589,0.65,1.275,1.22,1.682,2.023
	C192.8,89.266,193.055,89.851,192.48,90.501z"/>
<path style="fill:#131313;" d="M172.535,140.205c0.232,2.013,0.148,4.025-0.018,6.036c-0.597,3.023-1.467,5.89-4.335,7.626
	c-0.378,0.376-0.823,0.516-1.344,0.391c-0.717-0.347-1.183-0.882-1.553-1.618c-2.036-4.051-5.348-6.278-9.878-6.631
	c-1.089-0.085-2.144-0.306-3.187-0.575c-3.732-0.962-6.667,0.202-8.986,3.2c-0.548,0.709-0.846,1.697-1.898,1.928
	c-2.004,0.067-2.597-1.594-3.175-2.915c-0.969-2.212-2.2-4.301-3.033-6.573c-0.124-0.848-0.199-1.694,0.113-2.523
	c0.46-1.608-0.272-3.25,0.145-4.859c0.196-0.675,0.096-1.494,0.921-1.856c0.721,2.031,0.254,4.138,0.388,6.206
	c0.065,1,0.078,2.001,0.685,3.264c0.36-2.277,0.964-4.185,1.68-6.053c1.78-4.648,4.461-5.826,9.027-4.057
	c5.606,2.173,11.025,4.857,17.116,5.643C167.917,137.189,169.878,139.527,172.535,140.205z"/>
<path style="fill:#737373;" d="M145.991,207.56c0.305,0.047,0.757-0.02,0.895,0.157c2.92,3.763,7.617,5.809,9.85,10.239
	c1.826,3.624,0.718,7.724-2.669,10.259c-4.104,3.073-9.021,4.33-13.639,6.223c-7.017,2.877-13.734,6.335-20.527,9.678
	c-7.811,3.845-15.651,7.817-24.332,9.54c-2.977,0.591-5.845-0.36-8.756-0.617c-6.002-0.53-11.781-2.027-16.913-5.257
	c-3.807-2.397-5.726-7.548-0.489-10.842c3.159-1.987,6.524-3.346,10.061-3.997c4.393-0.808,8.736-1.937,13.244-2.229
	c3.432-0.222,6.96-0.531,9.962-2.601c0.628,0.451,1.256,0.902,1.884,1.353c0.099,1.58-1.347,1.564-2.204,1.888
	c-5.354,2.022-10.853,3.618-16.392,5.028c-2.888,0.735-5.218,2.257-7.402,4.115c-1.955,1.664-1.838,3.268,0.313,4.654
	c4.184,2.695,8.896,3.74,13.743,4.473c4.173,0.631,8.023-0.508,11.908-1.664c3.967-0.5,7.585-1.816,10.629-4.473
	c0.713-0.327,1.428-0.652,2.188-0.868c3.833-1.355,7.353-3.312,10.704-5.591c0.178-0.126,0.367-0.234,0.567-0.321
	c2.233-0.47,4.192-1.604,6.22-2.569c0.182-0.119,0.375-0.213,0.578-0.288c4.724-2.026,9.81-3.218,14.152-6.107
	c1.081-0.315,1.761-1.219,2.649-1.826c2.939-1.486,3.049-1.772,2.461-6.388c-0.118-0.42-0.303-0.809-0.509-1.19
	c-1.586-3.049-4.259-5.117-6.632-7.473C146.699,210.034,144.877,209.401,145.991,207.56z"/>
<path style="fill:#FAFAFA;" d="M129.684,88.985c-5.62,6.494-12.484,11.515-19.462,16.402c-0.962,0.15-0.728-0.601-0.723-1.051
	c0.11-8.729-0.278-17.462,0.196-26.189c0.076-1.389-0.002-2.783,0.035-4.174c0.015-0.548,0.04-1.116,0.694-1.321
	c0.575-0.18,1.062,0.014,1.462,0.442c4.467,4.778,10.166,8.039,15.099,12.241C128.145,86.322,129.852,86.986,129.684,88.985z"/>
<path style="fill:#6C6C6C;" d="M152.502,226.604c-0.775,0.619-1.55,1.239-2.325,1.858c-4.802,2.403-9.918,4.033-14.881,6.039
	l0,0.001c-2.137,1.15-4.358,2.133-6.511,3.251h0c-3.773,1.753-7.287,4.024-11.161,5.574c-0.62,0.31-1.24,0.619-1.86,0.929
	c-3.609,1.817-7.389,3.22-11.161,4.645c-0.527,0.119-1.08,0.17-1.576,0.367c-9.318,3.696-17.727,0.901-25.834-3.688
	c-2.287-1.295-2.066-3.819,0.166-5.784c3.04-2.676,6.549-4.291,10.475-5.192c3.919-0.899,7.821-1.895,11.682-3.012
	c1.742-0.504,3.369-1.406,5.048-2.127c0.37,0.263,0.74,0.526,1.111,0.788c-4.144,2.8-9.108,3.791-13.485,6.099
	c-2.067,1.09-4.146,2.081-5.708,3.88c-2.034,2.343-1.744,4.369,0.967,5.838c4.24,2.297,8.763,3.013,13.49,1.986
	c4.794-1.042,9.067-3.49,13.597-5.242c7.56-2.923,14.506-7.187,21.945-10.391c2.696-1.161,5.423-2.273,8.205-3.202
	c2.085-0.696,3.84-1.966,5.77-2.919c2.882-1.422,4.606-7.068,1.737-9.629c-0.887-0.792-1.664-1.842-2.019-3.074
	c2.294,0.806,3.403,2.796,4.654,4.644c0.155,0.31,0.31,0.619,0.465,0.929C156.554,222.786,156.116,223.953,152.502,226.604z"/>
<path style="fill:#D4D4D4;" d="M201.824,109.513c-1.16-3.801-2.506-7.531-4.195-11.133c0.093-2.206,1.277-3.895,2.477-5.651
	c4.672-6.837,7.979-14.312,9.408-22.469c0.323-1.847,1.316-3.661,0.872-5.642c0.011-0.234,0.079-0.45,0.214-0.643
	c0.277-0.643,1.027-1.039,0.974-1.855c0.305-0.161,0.61-0.322,0.915-0.484c-0.637,1.349-0.529,2.84-0.091,4.092
	c3.403,9.741,0.319,18.688-3.182,27.608c-0.789,2.009-1.622,4.007-2.289,6.057c-0.661,2.033-1.622,3.836-3.234,5.257
	C202.217,105.951,203.204,108.183,201.824,109.513z"/>
<path style="fill:#F0F0F0;" d="M180.9,79.215c0.582,2.235-0.858,2.098-2.258,1.855c-3.204-0.554-6.382-1.281-9.598-1.741
	c-10.135-1.448-19.562,0.504-28.121,6.201c-1.579,1.051-3.735,1.257-4.726,3.176c-1.217-0.738-2.435-1.475-4.001-2.424
	c1.499-0.886,2.747-1.625,3.996-2.364c4.86-2.364,9.173-5.648,13.854-8.29c5.63-3.178,11.496-5.95,18.322-4.786
	C172.622,73.52,176.928,76.118,180.9,79.215z"/>
<path style="fill:#4A4A4A;" d="M108.411,232.14c-1.47,1.575-2.994,3.103-4.387,4.743c-0.784,0.924-1.105,2.091-0.327,3.213
	c0.752,1.086,1.737,0.567,2.719,0.307c8.3-2.204,15.691-6.363,23.093-10.537c4.23-2.385,8.619-4.49,12.881-6.822
	c3.869-2.117,4.513-4.919,2.167-8.629c-1.39-2.198-3.345-4.097-3.678-6.861c0.153,0.007,0.306,0.012,0.459,0.017
	c2.588,3.428,6.171,6.072,7.81,10.264c0.727,1.86,0.483,3.379-0.81,4.698c-1.478,1.507-3.263,2.572-5.198,3.51
	c-2.702,1.308-5.488,2.406-8.213,3.648c-4.753,2.164-9.23,4.858-13.833,7.294c-4.988,2.64-10.366,4.21-15.432,6.572
	c-1.193,0.556-2.52,0.662-3.777,0.722c-2.841,0.136-4.438-3.1-2.922-5.727c1.639-2.841,4.322-4.557,6.903-6.379
	c0.446-0.373,0.901-0.732,1.488-0.865C107.707,231.584,108.059,231.862,108.411,232.14z"/>
<path style="fill:#5B5B5B;" d="M107.354,231.307c-0.298,0.29-0.596,0.581-0.893,0.871c-2.588,2.041-5.705,3.454-7.528,6.403
	c-0.783,1.266-1.802,2.601-0.758,4.025c0.971,1.325,2.576,1.669,4.221,1.546c2.219-0.166,4.359-1.034,6.208-1.948
	c3.88-1.919,8.035-3.137,11.866-5.144c5.486-2.874,10.931-5.838,16.591-8.367c2.955-1.321,5.909-2.633,8.755-4.182
	c0.971-0.528,1.853-1.175,2.56-1.963c1.822-2.032,1.529-4.377-0.716-7.293c-0.469-0.61-1.485-1.074-0.738-2.123
	c3.974,2.021,5.817,6.868,3.906,10.276c-1.052,1.876-2.91,2.74-4.733,3.533c-4.801,2.089-9.778,3.719-14.44,6.194
	c-8.795,4.67-17.785,8.969-27.142,12.429c-2.802,1.036-5.7,1.302-8.673,0.536c-3.987-1.028-4.944-4.073-2.008-7.046
	c2.805-2.839,6.384-4.595,9.827-6.52c0.938-0.524,2.025-0.809,2.757-1.673C106.729,231.01,107.042,231.158,107.354,231.307z"/>
<path style="fill:#C9C9C9;" d="M136.307,131.836c-0.054,0.63-0.107,1.259-0.161,1.889c-1.198,1.323-1.616,0.303-1.979-0.686
	c-1.728-4.711-4.385-8.968-6.551-13.464c-0.68-1.412-1.642-2.601-2.702-3.744c-1.376-1.484-2.954-2.039-4.997-1.748
	c-2.291,0.326-4.605,0.53-6.903,0.826c-0.816,0.105-1.733-0.076-2.399,0.632c-0.457,0.621-0.488,1.527-1.288,1.918
	c0.034-2.35-0.48-4.727,0.351-7.037c0.174-0.133,0.37-0.213,0.588-0.242c0.548,0.093,0.952,0.508,1.48,0.648
	c1.33,0.414,2.447,0.067,3.728-0.516c2.705-1.23,5.415-2.629,8.576-2.371c2.512,0.205,4.446,1.286,5.393,3.632
	c2.232,5.528,4.827,10.91,6.707,16.58C136.201,129.378,136.254,130.607,136.307,131.836z"/>
<path style="fill:#E3E3E3;" d="M129.684,88.985c-6.233-5.224-13.094-9.674-19.284-15.297c-0.218,2.364-0.611,4.811-0.64,7.262
	c-0.086,7.402-0.03,14.806-0.029,22.209c0,0.779,0.067,1.543,0.491,2.228c-0.187,0.109-0.419,0.349-0.554,0.304
	c-0.448-0.151-0.404-0.596-0.404-0.971c-0.004-11.522-0.003-23.044-0.003-35.104c2.783,1.975,5.221,3.679,7.632,5.42
	c4.391,3.172,8.776,6.355,13.141,9.562c0.863,0.634,1.81,1.298,1.474,2.637c-0.092,0.851-0.105,1.765-1.352,1.698
	C129.998,88.95,129.841,88.967,129.684,88.985z"/>
<path style="fill:#151515;" d="M139.483,208.488c-0.172,1.767-0.339,3.534-0.518,5.3c-0.33,3.255-2.201,5.611-4.712,7.411
	c-5.529,3.962-11.121,7.841-16.768,11.634c-2.061,1.385-4.328,2.642-6.832,0.732c1.794,0.431,3.176-0.186,4.629-1.317
	c5.357-4.172,10.84-8.183,15.991-12.617c2.497-2.149,4.222-4.9,5.969-7.634C137.99,210.828,138.736,209.658,139.483,208.488z"/>
<path style="fill:#E3E3E3;" d="M168.369,70.843c-1.1,0.332-2.186,0.891-3.303,0.959c-7.767,0.476-14.309,3.861-20.518,8.229
	c-2.519,1.772-4.976,3.874-8.355,3.888c2.672-2.179,5.465-4.19,8.376-6.039c3.162-1.55,5.804-3.909,8.838-5.658
	c2.04-1.176,4.01-2.459,5.857-3.919c1.041-0.823,2.229-1.106,3.509-1.154C164.648,68.365,166.685,69.336,168.369,70.843z"/>
<path style="fill:#656565;" d="M110.15,110.508c-0.158-0.029-0.316-0.059-0.474-0.088c0.006-0.138,0.018-0.276,0.037-0.413
	c3.761-2.212,6.979-5.128,10.304-7.909c1.654-1.28,2.994-2.884,4.497-4.32c0.887-0.847,1.749-1.649,2.919-2.189
	c2.037-0.939,2.653-0.886,3.807,1.009c1.494,2.452,1.833,5.327,2.882,7.943c1.299,3.239,1.676,6.671,2.044,10.101
	c-0.008,0.93-0.017,1.86-0.025,2.79c-1.486,0.093-1.383-1.122-1.645-2.016c-1.153-3.945-2.094-7.973-4.046-11.628
	c-1.924-3.603-5.314-4.021-8.013-1.055c-1.929,2.12-4.231,3.792-6.478,5.535c-0.875,0.215-1.261,1.077-1.963,1.492
	C112.82,110.455,111.716,111.738,110.15,110.508z"/>
<path style="fill:#6E6E6E;" d="M190.143,87.262c-0.683-0.639-1.481-1.174-1.881-2.069c3.495-2.766,6.929-5.584,10.22-8.612
	c3.254-2.994,6.049-6.379,9.149-9.492c0.54-0.543,1.095-1.071,1.644-1.605c0.968,1.029,0.007,1.835-0.344,2.685
	c-0.44,1.065-1.071,2.03-1.812,2.917c-3.939,4.146-7.258,8.843-11.418,12.797c-1.096,1.042-2.331,1.931-3.295,3.125
	C191.8,87.757,190.974,87.855,190.143,87.262z"/>
<path style="fill:#B8B8B8;" d="M136.148,128.149c-0.147,0.27-0.294,0.54-0.602,1.105c-1.284-4.835-3.709-9.005-5.114-13.531
	c-2.672-8.609-8.726-7.424-14.527-4.815c-1.692,0.761-3.301,1.711-5.246,0.932c0.163-0.488,0.454-0.845,0.983-0.959
	c2.825-1.194,5.597-2.538,8.181-4.152c5.039-3.147,9.855-0.171,11.047,4.142c1.168,4.225,3.098,8.199,4.555,12.337
	c0.305,0.866,0.083,1.862,0.731,2.613C136.154,126.598,136.151,127.373,136.148,128.149z"/>
<path style="fill:#A6A6A6;" d="M136.156,125.822c-1.375-0.354-1.12-1.721-1.478-2.61c-1.605-3.99-3-8.064-4.532-12.085
	c-1.619-4.251-5.936-5.783-10.032-3.713c-2.802,1.416-5.346,3.4-8.544,3.969c0.241-1.484,1.894-1.294,2.639-2.218
	c0.571-0.708,1.596-0.906,2.179-1.656c0.171-0.153,0.354-0.285,0.555-0.397c1.846-1.101,3.443-2.56,5.526-3.325
	c4.385-1.609,7.674-0.243,9.063,4.299c1.441,4.711,3.397,9.247,4.614,14.027C136.15,123.349,136.153,124.585,136.156,125.822z"/>
<path style="fill:#A4A4A4;" d="M206.452,70.526c1.195-1.539,2.145-3.214,2.822-5.042c0.442-0.503,0.885-1.005,1.327-1.508
	c0.04,0.18,0.079,0.361,0.119,0.541c-0.048,1.033-0.229,2.041-0.565,3.024c-0.985,3.066-2.997,5.612-4.254,8.58
	c-1.429,3.374-3.684,6.434-6.106,9.287c-1.247,1.468-2.384,3.035-3.321,4.731c-0.678,1.229-1.632,1.829-3.062,1.303
	c-0.31-0.314-0.62-0.627-0.931-0.94c-0.287-0.477-0.575-0.955-0.862-1.432c0.034-1.488,1.002-2.467,2.01-3.313
	C198.796,81.422,202.581,75.941,206.452,70.526z"/>
<path style="fill:#3B3B3B;" d="M119.958,102.59c-3.232,2.724-6.097,5.955-10.245,7.416c-0.112-0.446-0.862-1.132,0.025-1.293
	c4.205-0.765,6.54-4.193,9.46-6.677c3.457-2.942,6.644-6.23,9.498-9.805c0.793-0.994,1.491-1.969,1.461-3.298
	c0.451-0.566,0.902-1.132,1.352-1.698c0.178,0.159,0.355,0.317,0.533,0.476c1.692,6.443,3.519,12.858,4.157,19.524
	c0.021,0.615,0.042,1.229,0.063,1.844c-0.026,0.924-0.053,1.849-0.08,2.773c-1.244-0.861-0.982-2.364-1.247-3.516
	c-0.897-3.888-2.248-7.615-3.591-11.345c-0.898-2.495-1.929-2.691-4.134-1.121C124.501,97.798,122.59,100.582,119.958,102.59z"/>
<path style="fill:#858585;" d="M115.744,107.672c2.666-2.33,5.227-4.795,8.026-6.952c2.88-2.219,5.426-1.388,7.128,1.991
	c1.983,3.937,2.964,8.223,4.326,12.376c0.264,0.804,0.371,1.655,0.916,2.344c0.002,0.779,0.004,1.557,0.006,2.336
	c-1.057,0.608-1.093-0.234-1.327-0.893c-1.275-3.589-2.544-7.182-3.67-10.82c-1.567-5.062-5.129-6.4-9.925-3.505
	c-1.578,0.952-2.905,2.258-4.53,3.137l0,0C116.373,107.938,116.056,108,115.744,107.672z"/>
<path style="fill:#939393;" d="M116.896,107.686c1.994-1.938,4.16-3.655,6.601-5c2.811-1.55,6.253-0.282,7.351,2.79
	c1.368,3.825,2.592,7.701,3.951,11.53c0.387,1.09,0.601,2.351,1.894,2.953c-0.209,1.167-0.176,0.987-0.385,2.154
	c-0.737,0.006-0.713-0.615-0.901-1.099c-1.514-3.892-3.042-7.783-4.123-11.821c-1.324-4.946-4.551-6.159-9.74-4.071
	C119.883,105.791,118.72,107.332,116.896,107.686z"/>
<path style="fill:#4D4D4D;" d="M119.958,102.59c2.859-2.934,5.664-5.924,8.598-8.78c1.591-1.548,2.723-0.925,3.312,1.717
	c1.225,5.499,3.44,10.735,4.314,16.325c-0.006,0.93-0.011,1.861-0.016,2.791c-1.338-4.728-2.489-9.511-4.175-14.136
	c-0.105-0.288-0.163-0.594-0.257-0.886c-1.324-4.118-3.29-4.611-6.438-1.71C123.556,99.511,122.244,101.61,119.958,102.59z"/>
<path style="fill:#CBCBCB;" d="M162.772,67.149c-1.792,1.945-4.28,2.917-6.464,4.214c-3.297,1.959-6.66,3.809-9.848,5.955
	c-0.567,0.382-1.117,0.864-1.893,0.562c5.225-3.785,10.456-7.562,15.67-11.363C161.385,65.68,162.049,66.455,162.772,67.149z"/>
<path style="fill:#1F1F1F;" d="M136.199,107.234c-1.399-6.505-4.195-12.714-4.157-19.524c0.462,0.775,0.923,1.55,1.384,2.324
	C135.341,95.608,136.513,101.302,136.199,107.234z"/>
<path style="fill:#969696;" d="M87.86,220.101c-2.015-0.162-4.085,0.398-6.046-0.465C83.841,219.642,85.978,218.21,87.86,220.101z"
	/>
<path style="fill:#717171;" d="M154.827,218.426c-1.719-1.38-2.724-3.475-4.654-4.644c-2.408-1.508-4.616-3.198-5.578-6.038
	c0.465,0,0.931,0,1.397-0.001c0.737,2.466,2.976,3.657,4.577,5.391C152.107,214.801,154.372,215.888,154.827,218.426z"/>
<path style="fill:#C6C6C6;" d="M198.568,155.093c0.308-0.623,0.615-1.246,0.923-1.869c0.993,2.058,0.972,4.339,1.286,6.516
	c0.867,5.998,2.775,11.706,4.483,17.475c1.25,4.22,1.648,8.447,0.52,12.792c-0.525,2.023-0.482,4.135,0.278,6.165
	c0.615,1.642,0.375,3.365,0.374,5.055c-0.001,1.57,0.111,3.089,0.942,4.471c-3.411-0.001-6.821-0.001-10.232-0.002
	c-1.723-0.908-1.613-2.437-1.381-4.021c0.782-5.35,1.33-10.73,2.105-16.08c0.76-5.247,0.186-10.475,0.116-15.717
	C197.917,164.95,197.406,159.981,198.568,155.093z"/>
<path style="fill:#535353;" d="M146.922,213.132c0.243,1.123,1.158,1.803,1.781,2.673c2.674,3.731,1.86,7.236-2.292,9.249
	c-6.386,3.096-12.942,5.866-19.191,9.213c-5.733,3.07-11.774,5.413-17.667,8.082c-3.121,1.414-6.386,3.172-10.158,2.434
	c-2.922-0.571-3.904-2.337-2.512-5.012c2.049-3.938,5.855-5.729,9.579-7.593c-0.702,1.042-1.566,1.926-2.694,2.492
	c-1.922,0.963-2.968,2.706-3.861,4.492c-1.168,2.335,0.354,4.374,2.964,4.24c1.757-0.09,3.283-0.902,4.839-1.524
	c6.872-2.747,13.706-5.541,20.126-9.329c3.622-2.137,7.493-3.929,11.427-5.529c2.182-0.888,4.341-1.956,6.285-3.275
	c3.696-2.509,3.987-4.831,1.393-8.549c-1.805-2.587-4.316-4.656-5.601-7.624C143.87,208.752,145.001,211.338,146.922,213.132z"/>
<path style="fill:#AFAFAF;" d="M195.727,160.874c0.691-1.663,1.298-3.366,2.376-4.839c0.355-0.085,0.718,0.076,0.6,0.405
	c-1.163,3.259-0.538,6.658-0.826,9.982c-0.738,8.533-2.436,16.85-5.117,24.999c-1.377,4.186-2.87,8.306-4.647,12.332
	c-0.314,0.71-0.579,1.431-1.203,1.941c-3.098,0.002-6.197,0.005-9.295,0.007c2.16-4.115,5.415-7.52,7.626-11.59
	c4.467-8.22,8.804-16.504,9.623-26.077c0.092-1.076,0.278-2.143,0.42-3.215C194.293,163.378,195.391,162.169,195.727,160.874z"/>
<path style="fill:#979797;" d="M168.312,205.686c2.42-2.552,4.726-5.194,7.398-7.526c3.119-2.722,6.067-5.674,8.248-9.271
	c0.76-1.254,1.61-2.446,2.956-3.164c-1.063,3.508-3.465,6.221-5.897,8.707c-3.014,3.08-5.728,6.42-8.722,9.511
	C171.105,205.173,169.985,205.882,168.312,205.686z"/>
<path style="fill:#949494;" d="M195.727,160.874c0.101,1.343-0.062,2.657-0.442,3.947c-0.465,0.774-0.93,1.548-1.395,2.323
	c-0.003-0.467-0.005-0.934-0.008-1.401c-1.341-1.299,0.721-2.189,0.406-3.364C194.768,161.878,195.247,161.376,195.727,160.874z"/>
<path style="fill:#767676;" d="M189.708,174.114c-1.624,4.844-4.531,8.909-7.667,12.87c-5.202,6.569-12.174,10.815-19.238,14.971
	c-0.797,0.469-1.733,0.869-2.285,1.557c-1.282,1.6-2.909,1.894-4.766,1.714c-1.154-1.113-0.829-2.068,0.391-2.803
	c2.547-1.534,5.028-3.223,7.976-3.941c0.656-0.16,1.017-0.655,1.503-1.017c1.543-1.151,3.092-2.327,4.976-2.857
	c1.817-0.512,3.036-1.83,4.235-3.095c2.05-2.162,4.729-3.736,6.148-6.488c0.993-2.618,3.462-4.209,4.666-6.693
	c0.361-0.746,0.853-1.434,1.161-2.216c0.718-0.856,0.799-2.326,2.325-2.401C189.376,173.775,189.568,173.908,189.708,174.114z"/>
<path style="fill:#6E6E6E;" d="M181.799,185.26c-1.166,2.966-3.872,4.558-6.052,6.573c-3.709,3.428-8.299,5.484-12.791,7.688
	c-2.135,1.048-4.227,2.247-6.109,3.755c-0.649,0.52-1.03,1.131-1.094,1.949c-0.926,0.009-1.853,0.019-2.779,0.028
	c0,0-0.006-0.033-0.006-0.033c-1.117-1.886-0.142-4.456,2.022-5.055c5.302-1.467,10.481-3.252,15.028-6.412
	c3.061-2.127,6.524-3.769,8.7-7.061C179.323,185.775,180.318,184.752,181.799,185.26z"/>
<path style="fill:#6E6E6E;" d="M189.708,174.114c-0.163-0.005-0.327-0.011-0.49-0.016c-1.508-1.542,0.507-2.511,0.615-3.79
	c0.704-1.058,0.427-2.497,1.341-3.477c0.985-1.497,2.19-2.832,3.183-4.322l-0.068-0.129c0.888,1.245-0.274,2.243-0.406,3.365
	C192.036,168.308,191.359,171.453,189.708,174.114z"/>
<path style="fill:#636363;" d="M181.799,185.26c-3.847,3.56-7.663,7.14-12.248,9.802c-3.962,2.301-8.164,4.059-12.479,5.482
	c-2.47,0.814-3.754,2.225-4.105,4.677c-0.781-0.001-1.562-0.002-2.342-0.003c-0.609-1.848-1.218-3.697-1.826-5.545
	c1.097-0.938,2.194-1.876,3.291-2.814c0.197-0.161,0.416-0.2,0.657-0.115c0.805,1.013,1.846,1.161,3.054,0.926
	c6.846-1.329,13.035-3.907,18.694-8.178c4.539-3.425,7.99-7.581,11.054-12.212c0.418-0.631,0.85-1.386,1.839-0.844
	c-0.508,2.237-1.9,3.969-3.313,5.672C183.244,183.112,182.348,184.058,181.799,185.26z"/>
<path style="fill:#BCBCBC;" d="M186.911,205.696c-0.661-1.757,0.438-3.146,1.028-4.609c3.59-8.896,6.292-17.996,7.901-27.504
	c0.925-5.462,0.458-11.113,2.353-16.421c0.116-0.324-0.054-0.749-0.09-1.127c0.155-0.314,0.31-0.629,0.465-0.943
	c0.598,2.722,0.08,5.488,0.255,8.242c0.287,4.518,0.601,9.057,0.664,13.599c0.116,8.317-1.536,16.446-2.527,24.644
	c-0.171,1.416-0.218,2.76,0.183,4.118c-0.308,0.003-0.616,0.005-0.924,0.008C193.116,205.701,190.013,205.699,186.911,205.696z"/>
<path style="fill:#A7A7A7;" d="M28.339,217.85c-0.586-0.904-0.493-1.926-0.493-2.925c0.006-12.826,0.019-25.653,0.03-38.479
	c1.831-0.229,1.505,1.232,1.548,2.165c0.149,3.247,0.047,6.5,0.065,9.751c0.004,0.696-0.029,1.395,0.063,2.087
	c0.072,0.542,0.156,1.116,0.754,1.334c0.626,0.228,1.031-0.199,1.372-0.626c1.296-1.621,2.635-3.143,3.192-5.3
	c0.471-1.823,0.932-3.755,2.259-5.287c0.566-0.654,0.779-1.569,0.661-2.416c-0.524-3.77-0.091-7.577-0.054-11.325
	c0.043-4.477-0.448-8.943-0.165-13.406c0.148-2.336,1.209-4.522,2.092-6.598c2.324-5.464,5.312-10.491,10.074-14.431
	c5.36-4.435,11.606-7.384,17.306-11.222c1.475-0.993,3.12-1.393,4.808-1.552c2.08-0.196,2.776-1.329,2.773-3.248
	c-0.003-1.62-0.207-3.267,0.227-4.854c0.329-1.205,0.728-1.276,1.615-0.448c0.005,10.219,0.003,20.433-0.003,30.647
	c0,0.691,0.103,1.393-0.112,2.07c-1.263,0.553-1.095-0.409-0.969-1.03c0.328-1.616,0.034-3.237,0.156-4.598
	c0,0.886,0.019,2.025-0.009,3.162c-0.012,0.502,0.211,1.152-0.521,1.362c-0.614,0.176-0.982-0.261-1.389-0.636
	c-2.076-1.909-2.259-1.685-4.714-0.242c-2.98,1.752-4.955,4.405-6.204,7.291c-2.341,5.41-4.271,11.034-2.392,17.157
	c0.836,2.727-0.084,5.658,0.785,8.482c0.861,2.795,1.383,5.68,2.506,8.421c1.985,4.845,2.346,10.014,2.607,15.172
	c0.081,1.61,0.328,3.073,1.733,4.092c0.683,0.495,1.099,1.135,0.736,1.988c-0.35,0.822-1.171,1.144-1.92,1.021
	c-3.556-0.58-7.093,0.246-10.638,0.016c3.53,0.247,7.039-0.356,10.599-0.102c1.877,0.134,3.826-0.986,5.879-0.808
	c1.085,0.094,2.162,0.116,3.158,0.62c0.212,0.136,0.358,0.323,0.438,0.56c-1.017,0.514-2.118,0.385-3.193,0.387
	c-8.511,0.021-17.022,0.048-25.533,0.017c-1.618-0.006-3.006,0.382-4.33,1.326C38.226,210.944,33.275,214.387,28.339,217.85z"/>
<path style="fill:#BFBFBF;" d="M75.786,143.947c0.564-1.081,0.435-2.254,0.436-3.403c0.008-10.021,0.006-20.042,0.007-30.062
	c-1.959-1.665-1.498-3.895-1.415-6.037c0.187-1.146,0.218-2.31,0.386-3.456c0.125-0.854,0.283-1.739,1.484-1.66
	c0.008,31.587,0.016,63.175,0.024,94.762c-0.007,3.062-0.013,6.123-0.02,9.184c-0.002,0.846-0.017,1.689-0.494,2.439
	c-0.153-0.002-0.306-0.006-0.459-0.009c-1.004-0.829-1.092-1.983-1.095-3.153c-0.046-18.522-0.05-37.043,0.016-55.565
	C74.658,145.886,74.437,144.596,75.786,143.947z"/>
<path style="fill:#AFAFAF;" d="M76.227,104.431c0.68,1.867,0.66,1.811,1.341,3.678c-2.619,3.354-1.625,6.924-1.73,10.421
	c-0.048,1.594-0.334,2.454-2.236,2.23c-3.387-0.398-6.125,1.388-8.782,3.109c-3.055,1.979-6.344,3.605-9.303,5.68
	c-4.059,2.846-7.917,5.794-10.719,10.29c-2.372,3.807-4.015,7.742-5.543,11.835c-0.724,1.94-0.651,3.985-0.414,5.933
	c0.656,5.389-0.109,10.767,0.1,16.148c0.041,1.065-0.059,2.141,0.046,3.224c0.181,1.864,0.273,3.738-1.342,5.161
	c-0.497,0.438-0.513,1.087-0.658,1.691c-0.862,3.59-2.743,6.646-5.143,9.389c-0.519,0.593-1.102,1.553-2.07,1.21
	c-1.076-0.381-1.317-1.498-1.336-2.51c-0.064-3.479-0.014-6.961-0.081-10.44c-0.032-1.682,0.34-3.412-0.442-5.032
	c0-13.783,0-27.565-0.001-41.348c1.226-0.547,1.702,0.144,1.942,1.19c0.169,0.737,0.029,1.525,0.33,2.465
	c1.346-1.411,2.292-2.87,3.077-4.442c2.247-4.496,5.483-8.053,10.135-10.073c2.588-1.123,4.733-2.896,6.998-4.439
	c5.165-3.516,11.219-5.142,16.564-8.235c1.462-0.846,3.201-1.124,4.827-1.621c1.805-0.551,2.922-1.578,2.935-3.637
	C74.729,105.431,74.602,104.12,76.227,104.431z"/>
<path style="fill:#BFBFBF;" d="M76.675,86.79c0.001,3.868,0.001,7.736,0.002,11.604c-5.35,0.591-9.798,3.53-14.618,5.525
	c-3.417,1.414-7.033,2.355-10.668,3.056c-5.318,1.026-10.557,2.266-15.519,4.489c-1.568,0.702-3.231,1.053-4.912,1.322
	c-1.476,0.237-2.163-0.503-2.427-1.923c-0.481-2.588-0.239-5.229-0.661-7.816c0.002-7.893,0.005-15.787,0.007-23.68
	c1.116-0.427,1.306,0.429,1.566,1.149c0.236,0.654,0.379,1.354,0.761,1.937c0.741,1.132,1.646,1.74,2.774,0.454
	c1.301-1.484,2.739-1.488,4.362-0.591c0.878,0.485,1.801,0.893,2.708,1.326c1.123,0.536,2.212,0.658,3.282-0.13
	c0.877-0.646,1.969-0.846,2.873-0.447c2.032,0.898,4.21,1.308,6.214,2.424c2.512,1.399,5.347,2.594,8.383,2.033
	c4.152-0.768,8.522,0.325,12.547-1.604C74.511,85.365,75.799,85.615,76.675,86.79z"/>
<path style="fill:#B6B6B6;" d="M27.873,103.048c0.869,2.174,0.319,4.568,1.164,6.794c0.602,1.588,1.323,1.967,2.919,1.619
	c2.228-0.487,4.108-1.879,6.2-2.428c3.127-0.821,6.151-2.124,9.343-2.567c8.215-1.14,15.76-4.131,23.104-7.796
	c1.954-0.975,3.974-1.895,6.075-0.275c0.002,0.311,0.004,0.622,0.006,0.934c-0.777,1.648-0.323,3.406-0.453,5.111
	c-0.149,0.593-0.383,1.179-0.434,1.78c-0.315,3.774-0.32,3.721-3.987,4.988c-7.817,2.702-15.375,6.041-22.268,10.599
	c-2.456,1.624-5.016,3.002-7.543,4.457c-3.417,1.967-5.829,4.813-7.52,8.256c-1.164,2.37-3.122,4.238-4.028,6.746
	c-0.129,0.358-0.411,0.709-0.865,0.633c-0.432-0.072-0.568-0.479-0.702-0.842c-0.306-0.828-0.144-1.677-0.123-2.524
	c0.031-1.222,0.246-2.506-0.885-3.435C27.875,124.415,27.874,113.731,27.873,103.048z"/>
<path style="fill:#C5C5C5;" d="M76.675,86.79c-1.492-0.114-2.882,0.223-4.286,0.744c-4.352,1.617-8.996,0.894-13.477,1.245
	c-2.446,0.191-5.422-0.757-7.733-2.55c-1.599-1.241-3.75-1.294-5.587-2.077c-0.67-0.285-1.413,0.108-1.725,0.828
	c-0.638,1.472-1.6,1.102-2.649,0.572c-1.584-0.802-3.169-1.605-4.776-2.359c-0.789-0.37-1.696-0.683-2.136,0.45
	c-0.296,0.763,0.246,2.241-1.225,1.955c-1.583-0.307-3.489-0.439-4.115-2.464c-0.386-1.249-0.726-2.511-1.086-3.767
	c-0.008-1.712-0.017-3.424-0.025-5.136c0.008-2.626,0.015-5.253,0.023-7.879c1.29-0.329,1.373,0.644,1.521,1.463
	c0.151,0.835,0.187,1.687,0.397,2.517c0.34,1.345,1.094,2.189,2.548,2.283c1.691,0.11,3.361,0.605,5.079,0.258
	c0.535-0.108,1.105-0.125,1.609,0.077c3.998,1.606,8.413,2.051,12.16,4.359c0.734,0.452,1.545,0.721,2.395,0.842
	c1.627,0.23,3.297,0.645,4.619,1.469c5.002,3.12,10.196,2.462,15.487,1.233c1.034-0.24,2.113-0.743,2.993,0.356
	C76.683,83.069,76.679,84.93,76.675,86.79z"/>
<path style="fill:#CECECE;" d="M27.876,37.557c0.28,4.054,2.077,6.317,6.396,7.288c5.728,1.288,11.288,3.636,15.964,7.228
	c4.154,3.191,9.035,5.016,13.232,8.039c1.472,1.06,3.227,1.653,4.99,1.785c2.477,0.186,4.569,1.385,6.843,2.093
	c1.258,0.392,1.385,1.307,1.387,2.359c0.004,2.632,0.004,5.264,0.005,7.896c-0.812,2.231-2.711,2.162-4.667,2.649
	c-6.394,1.593-11.282-1.666-16.617-4.138c-7.904-3.664-15.117-8.875-23.757-10.888c-2.376-0.554-3.282-1.84-3.404-4.179
	c-0.058-1.118,0.123-2.317-0.37-3.407C27.878,48.707,27.877,43.132,27.876,37.557z"/>
<path style="fill:#C6C6C6;" d="M27.915,54.281c0.067,0.139,0.193,0.278,0.192,0.417c-0.04,4.687,3.089,6.145,6.963,7.08
	c3.76,0.908,7.142,2.692,10.527,4.615c5.549,3.153,11.316,5.952,17.127,8.603c4.689,2.139,9.425,1.16,14.007-0.752
	c-0.003,2.322-0.005,4.643-0.008,6.965c-4.099,1.016-8.123,2.347-12.48,1.881c-2.956-0.316-5.308-2.058-8.026-2.933
	c-5.256-1.693-10.388-3.768-15.618-5.547c-2.963-1.008-6.12-0.654-9.16-0.525c-1.573,0.067-2.104-0.249-2.352-1.616
	c-0.371-2.043-0.78-4.078-1.172-6.117C27.915,62.329,27.915,58.305,27.915,54.281z"/>
<path style="fill:#080808;" d="M194.357,162.508c-0.378,1.746-1.606,3.057-2.36,4.61c-0.843,1.245-1.511,2.592-2.284,3.879
	c-1.925,2.103-3.765,4.283-5.806,6.281c-4.042,3.066-7.927,6.35-12.595,8.495c-4.176,1.919-8.466,3.114-13.101,2.228
	c-5.874-1.123-9.717-5.032-12.796-9.753c-1.15-1.764-2.085-3.668-3.502-5.256c-0.436-0.529-1.165-0.76-1.447-1.43
	c-0.135-0.957-0.598-1.684-1.515-2.078c-0.71-1.228-2.232-2.228-1.136-3.973c1.003-0.776,1.943,0.185,2.922,0.101
	c6.042,3.249,12.263,6.046,19.036,7.436c1.397,0.916,3.032,0.622,4.556,0.89c0.973,0.136,1.814,0.96,2.891,0.545
	c1.87,0.684,4.329-0.316,5.639,1.968c0.931,0.924,1.737,0,2.489-0.273c6.637-2.408,12.208-6.377,16.86-11.671
	C192.849,163.778,193.312,162.82,194.357,162.508z"/>
<path style="fill:#3E3E3E;" d="M172.859,176.452c-1.914-0.889-4.096-0.001-6.009-0.902c2.218-2.443,1.611-5.275,1.373-8.184
	c-0.203-2.483-0.485-5.006-0.058-7.54c0.371-2.198-0.445-4.397-0.319-6.618c1.908-2.087,3.384-4.464,4.671-6.966
	c0.076,8.689,0.148,17.377,0.231,26.066C172.762,173.689,172.821,175.07,172.859,176.452z"/>
<path style="fill:#F8F8F8;" d="M136.149,173.645c-0.418,2.715-1.247,5.354-0.906,8.192c0.289,2.409-0.983,3.515-3.484,3.634
	c-1.411,0.067-2.784,0.034-4.074-0.596c-3.17-1.548-6.747-1.649-10.016-2.835c-0.712-0.258-1.358-0.188-2.01,0.151
	c-1.842,0.959-2.782,0.46-2.729-1.679c0.009-0.377-0.061-0.772-0.629-1.083c-0.967,0.751-0.703,1.888-0.708,2.875
	c-0.03,6.653-0.009,13.306-0.029,19.959c-0.003,1.108,0.135,2.295-0.892,3.234c-0.8-0.903-0.471-1.868-0.473-2.735
	c-0.025-15.008-0.019-30.016-0.019-45.024c0-12.129-0.002-24.259,0.01-36.388c0.001-1.218-0.211-2.516,0.919-3.444
	c0.841-0.031,1.293,0.46,1.479,1.196c0.374,1.479,1.473,2.121,2.81,2.439c4.823,1.148,7.77,4.509,10.076,8.571
	c1.179,2.077,2.167,4.263,3.237,6.402c0.906,1.811,2.065,3.431,3.523,4.842c0.892,0.863,1.695,1.812,3.185,1.328
	c0.742-0.241,1.107,0.337,1.349,0.961c0.932,3.694,0.535,7.46,0.609,11.2c0.078,3.937-0.104,7.874,0.002,11.812
	c-0.004,1.585,0.051,3.172-0.069,4.753C137.244,172.303,137.247,173.271,136.149,173.645z"/>
<path style="fill:#3E3E3E;" d="M136.149,173.645c0.051-2.324,0.102-4.647,0.153-6.971c0.192-0.424,0.262-0.881,0.261-1.332
	c-0.001-0.568,0.232-0.908,0.794-0.82c0.612,0.096,0.94,0.474,0.702,1.144c0.293,1.306,1.245,2.235,1.91,3.329
	c0.968,4.193,0.98,8.535,2.297,12.698c1.52,4.804,8.719,10.836,14.451,10.592c4.537-0.193,8.487-1.555,12.439-3.449
	c5.521-2.645,10.005-6.547,13.958-11.131c2.24-2.268,4.289-4.699,6.137-7.298c1.007-1.019,1.496-2.47,2.746-3.287
	c-0.17,1.209-0.883,2.192-1.372,3.268c-2.705,5.119-6.14,9.797-10.104,13.915c-6.801,7.065-15.031,11.882-24.918,13.42
	c-1.139,0.177-2.22,0.004-3.107-0.828c-0.135-0.014-0.271-0.025-0.407-0.034c-4.775-3.12-9.522-6.284-14.347-9.326
	c-1.136-0.716-1.531-1.5-1.52-2.784C136.257,181.049,136.181,177.347,136.149,173.645z"/>
<path style="fill:#ECECEC;" d="M136.128,142.997c-0.85,2.979-0.729,2.839-3.119,0.789c-3.64-3.122-5.723-7.212-7.667-11.419
	c-1.147-2.482-2.639-4.711-4.607-6.594c-1.401-1.34-2.965-2.59-4.943-2.835c-3.059-0.378-4.663-1.922-4.681-5.032
	c0.002-0.467,0.004-0.934,0.007-1.401c2.36-1.743,7.837-1.56,10.961,0.347c2.369,1.445,3.992,3.593,5.545,5.809
	c2.475,3.533,4.169,7.544,6.71,11.029c1.141,1.565,0.962,3.516,1.826,5.132c0.048,0.762,0.097,1.524,0.145,2.287
	C136.45,141.757,136.706,142.416,136.128,142.997z"/>
<path style="fill:#DFDFDF;" d="M136.158,138.822c-0.901,0.064-0.872-0.728-1.13-1.241c-2.598-5.176-5.823-9.982-8.824-14.919
	c-2.926-4.813-7.226-6.761-12.78-6.142c-0.759,0.085-1.538-0.005-2.307-0.014c-0.168-0.322-0.335-0.644-0.503-0.966
	c-0.418-1.135-1.065-2.038,1.197-1.832c2.261,0.206,4.675-0.143,6.887-0.742c4.545-1.232,7.048,1.341,9.12,4.586
	c1.447,2.267,2.265,4.942,3.761,7.169c1.906,2.837,2.724,6.171,4.567,9.005C136.15,135.423,136.154,137.123,136.158,138.822z"/>
<path style="fill:#C7C7C7;" d="M209.692,67.264c0.074-1.016,0.462-1.915,1.027-2.748c0.974,2.161-0.155,4.254-0.387,6.319
	c-0.932,8.3-4.677,15.55-9.149,22.456c-1.124,1.736-2.366,3.395-3.554,5.089c-0.779-1.391-1.558-2.781-2.337-4.172
	c-0.278-1.348-0.014-2.465,0.871-3.635c2.269-2.998,4.481-6.047,6.637-9.128C205.844,77.096,207.465,72.027,209.692,67.264z"/>
<path style="fill:#B6B6B6;" d="M209.692,67.264c-1.682,5.88-3.936,11.457-7.347,16.628c-2.296,3.48-5.261,6.502-7.052,10.316
	c-0.627-0.922-1.254-1.844-1.881-2.766c1.748-0.817,2.402-2.557,3.36-4.025c2.112-3.233,5.183-5.734,6.961-9.223
	c1.574-3.089,3.227-6.138,4.818-9.217C208.87,68.357,209.109,67.701,209.692,67.264z"/>
<path style="fill:#868686;" d="M206.452,70.526c-1.451,3.429-3.824,6.285-6.064,9.168c-2.621,3.374-5.596,6.483-8.771,9.375
	c-0.492-0.602-0.983-1.205-1.475-1.807c4.316-2.893,7.912-6.52,11.146-10.572C202.957,74.599,204.429,72.326,206.452,70.526z"/>
<path style="fill:#1E1E1E;" d="M141.311,150.077c1.407-4.013,4.457-6.54,8.5-6.054c4.266,0.514,8.792,0.332,12.526,3.273
	c2.2,1.732,3.92,3.661,4.583,6.418c0.723,1.696-0.904,1.792-1.681,2.467c-1.737,1.432-3.929,1.65-5.984,2.238
	c-2.669,0.145-5.343,0.394-7.938-0.532c-3.446-1.113-6.651-2.67-9.306-5.192C141.265,151.987,140.199,151.306,141.311,150.077z"/>
<path style="fill:#5C5C5C;" d="M141.311,150.077c1.799,2.718,4.521,4.227,7.349,5.596c0.821,0.398,1.653,0.775,2.479,1.162
	c0.871,1.032,0.577,1.905-0.51,2.447c-1.45,0.723-2.776,1.743-4.278,2.271c-2.269,0.797-3.841,2.223-4.934,4.274
	c-0.236,0.443-0.529,0.744-1.009,0.866c-0.783-0.342-1.566-0.684-2.349-1.026c-1.583-1.398-1.034,0.91-1.757,1.008
	c-0.058-7.892-0.116-15.785-0.174-23.677c0.058-0.629,0.117-1.259,0.175-1.888C137.609,144.301,138.786,147.564,141.311,150.077z"/>
<path style="fill:#4C4C4C;" d="M164.984,155.47c0.645-0.585,1.29-1.171,1.935-1.756c0.309-0.169,0.618-0.338,0.927-0.507
	c1.568,1.321,1.715,3.1,1.599,4.961c-0.292,4.681-0.105,9.353,0.323,14.014c0.204,2.223-0.573,3.429-2.918,3.366
	c-0.953-0.044-1.928,0.044-2.809-0.447c1.153-3.514,0.573-7.174,0.931-10.75C165.271,161.374,164.771,158.428,164.984,155.47z"/>
<path style="fill:#717171;" d="M135.295,234.501c4.753-2.524,9.825-4.262,14.881-6.039c-1.473,1.625-3.603,2.15-5.495,2.859
	C141.596,232.475,138.6,233.971,135.295,234.501z"/>
<path style="fill:#717171;" d="M104.602,248.901c3.45-2.198,7.248-3.559,11.161-4.645
	C112.443,246.765,108.697,248.252,104.602,248.901z"/>
<path style="fill:#717171;" d="M117.623,243.327c3.558-2.183,7.16-4.277,11.161-5.574
	C125.251,239.985,121.773,242.328,117.623,243.327z"/>
<path style="fill:#717171;" d="M152.502,226.604c0.264-0.37,0.458-0.834,0.804-1.096c2.187-1.65,2.451-3.873,1.986-6.336
	C157.258,222.134,156.081,225.272,152.502,226.604z"/>
<path style="fill:#717171;" d="M128.784,237.753c1.942-1.539,4.081-2.686,6.511-3.251
	C133.464,236.264,131.133,237.026,128.784,237.753z"/>
<path style="fill:#939393;" d="M115.744,107.672c0.317,0.005,0.633,0.009,0.95,0.014c-1.292,1.807-3.527,2.31-5.123,3.697
	c-0.304,0.153-0.608,0.305-0.911,0.458c-0.169-0.445-0.339-0.889-0.509-1.333C112.448,110.414,113.823,108.507,115.744,107.672z"/>
<path style="fill:#5A5A5A;" d="M152.496,196.894c9.117-0.764,17.079-4.207,24.182-9.963c4.881-3.955,8.513-8.88,11.988-13.984
	c0.607-0.891,1.069-1.887,1.959-2.56c-0.469,1.237-0.938,2.474-1.407,3.712c-0.61,0.78-1.22,1.559-1.83,2.339
	c-1.044,1.334-2.151,2.624-3.122,4.01c-6.641,9.481-15.696,15.373-26.886,18.088C155.461,199.001,153.466,199.39,152.496,196.894z"
	/>
<path style="fill:#A3A3A3;" d="M75.849,143.77c-0.017,20.549-0.033,41.098-0.05,61.647c-6.626,0-13.251,0-19.876,0
	c3.427-0.152,6.785-1.354,10.243-0.766c0.741,0.126,1.638,0.325,1.915-0.625c0.268-0.918-0.678-1.059-1.241-1.337
	c-0.839-0.414-1.282-1.077-1.26-2.006c0.098-4.25-0.706-8.413-1.134-12.61c-0.316-3.097-2.185-5.723-2.77-8.759
	c-0.721-3.746-1.701-7.37-1.739-11.329c-0.033-3.462-0.74-7.007-0.842-10.548c-0.013-0.46-0.276-1.138-0.072-1.344
	c2.5-2.534,1.802-6.462,3.983-9.274c1.668-2.15,3.05-4.335,5.355-5.966c3.97-2.808,3.845-2.998,7.022,1.008c0-1.435,0-2.475,0-3.516
	c0-1.067,0-2.134,0-3.201c0.155,0,0.31,0.001,0.465,0.001C75.849,138.02,75.849,140.895,75.849,143.77z"/>
<path style="fill:#656565;" d="M140.408,166.693c-0.076-2.25,2.41-5.171,4.696-6.1c2.191-0.891,4.706-1.422,6.035-3.757
	c2.74,0.609,5.517,0.618,8.302,0.525c1.582-0.378,2.259,0.603,2.663,1.856c0.694,2.153,1.038,4.366,0.732,6.629
	c-0.269,1.991-0.619,3.972-0.838,5.968c-0.173,1.577-0.924,2.394-2.546,2.323C152.645,172.826,146.406,170.066,140.408,166.693z"/>
<path style="fill:#303030;" d="M183.669,177.837c-1.128,2.476-3.281,4.098-5.218,5.797c-4.801,4.212-10.353,7.062-16.545,8.859
	c-11.466,3.327-21.059-4.832-21.915-15.83c-0.131-1.689-0.343-3.371-0.522-5.056c-0.098-0.922-0.278-1.858,0.498-2.613
	c0.666,0.468,1.025,1.161,1.377,1.86c1.356,2.387,1.138,5.213,2.133,7.695c4.13,10.303,12.592,14.375,23.191,10.364
	c5.164-1.954,9.49-5.343,13.605-8.969c0.821-0.939,1.553-1.983,2.814-2.409C183.319,177.565,183.515,177.662,183.669,177.837z"/>
<path style="fill:#161616;" d="M183.189,177.819c-0.921,0.629-1.697,1.403-2.323,2.326c-4.54,4.094-9.465,7.592-15.406,9.337
	c-10.423,3.061-18.794-1.52-22.11-11.694c-0.587-1.802-1.422-3.559-1.068-5.543c0.813,0.515,1.262,1.32,1.765,2.106
	c1.537,2.401,3.171,4.708,5.047,6.893c6.099,7.1,15.02,7.145,22.207,3.681c3.565-1.718,6.842-3.867,9.764-6.556
	c0.789-0.726,1.727-1.292,2.597-1.931C184.247,177.151,183.684,177.474,183.189,177.819z"/>
<path style="fill:#595959;" d="M159.451,174.136c0.506-0.364,1.1-0.747,1.173-1.377c0.522-4.476,1.983-8.934,0.333-13.468
	c-0.299-0.823-0.645-1.572-1.516-1.93c1.848-0.63,3.696-1.26,5.544-1.89c1.35,1.191,1.437,2.862,1.419,4.427
	c-0.048,4.14-0.291,8.278-0.421,12.418c-0.043,1.382-0.539,2.38-1.94,2.786C162.462,175.014,160.908,174.807,159.451,174.136z"/>
<path style="fill:#252525;" d="M142.281,172.244c1.622,5.347,3.464,10.489,8.202,14.116c4.399,3.367,9.22,3.715,14.286,2.595
	c5.315-1.175,9.819-4.025,13.977-7.446c0.655-0.539,1.251-1.16,2.12-1.364c-6.332,6.716-13.886,10.969-23.307,11.172
	c-6.799,0.146-12.397-5.649-14.472-11.171c-1.126-2.995-1.366-6.156-1.741-9.292C141.657,171.318,141.969,171.781,142.281,172.244z"
	/>
<path style="fill:#252525;" d="M183.189,177.819c0.158-0.461,0.315-0.922,0.473-1.382c1.863-2.011,3.726-4.021,5.589-6.032
	c-1.258,2.928-3.524,5.102-5.581,7.432C183.509,177.831,183.349,177.825,183.189,177.819z"/>
<rect x="27.915" y="9.956" style="fill:#D5D5D5;" width="49.796" height="33.508"/>
<rect x="60.491" y="23.452" style="fill:#D5D5D5;" width="17.219" height="33.508"/>
</svg>
