<?xml version="1.0" encoding="iso-8859-1"?>
<svg width="180" height="50" viewBox="0 0 180 50" fill="none" xmlns="http://www.w3.org/2000/svg" class="graphic-logo"><style>
  .graphic-logo path {
    fill: var(--theme-elevation-1000);
  }
</style>

<g>
	<path d="M5.073,23.839V10.608H1.307V7.193h10.988v3.414H8.528v13.231H5.073z"/>
	<path d="M21.747,19.801c-0.32,2.63-2.25,4.314-4.962,4.314c-3.314,0-5.311-2.503-5.311-6.633c0-4.141,2.015-6.76,5.197-6.76
		c3.126,0,5.141,2.515,5.141,6.425v1.165h-7.09v0.254c0,1.569,0.857,2.641,2.109,2.641c0.923,0,1.648-0.531,1.902-1.407
		L21.747,19.801L21.747,19.801z M14.76,15.972h3.898c-0.066-1.419-0.829-2.342-1.94-2.342C15.646,13.63,14.845,14.599,14.76,15.972z
		"/>
	<path d="M29.966,16.029c-0.113-1.327-0.791-2.192-1.808-2.192c-1.234,0-1.968,1.315-1.968,3.576c0,2.307,0.735,3.576,1.968,3.576
		c1.017,0,1.685-0.761,1.808-2.099h3.069c-0.103,3.23-1.987,5.226-4.915,5.226c-3.267,0-5.301-2.526-5.301-6.702
		c0-4.13,2.034-6.691,5.282-6.691c2.928,0,4.83,2.134,4.924,5.306H29.966z"/>
	<path d="M34.362,6.363h3.267v7.048h0.066c0.556-1.719,1.779-2.63,3.38-2.63c2.335,0,3.748,1.811,3.748,4.845v8.213H41.48v-7.336
		c0-1.477-0.697-2.388-1.845-2.388c-1.139,0-1.94,1.027-1.94,2.491v7.233h-3.333L34.362,6.363L34.362,6.363z"/>
	<path d="M46.639,23.839V7.193h3.455v16.646H46.639z"/>
	<path d="M51.958,11h3.239v2.411h0.066c0.565-1.719,1.742-2.63,3.343-2.63c2.335,0,3.738,1.8,3.738,4.833v8.225h-3.343v-7.348
		c0-1.488-0.659-2.376-1.808-2.376c-1.13,0-1.902,1.027-1.902,2.48v7.244h-3.333L51.958,11L51.958,11z"/>
	<path d="M70.412,23.839h-3.842L63.04,11h3.588l1.874,9.39h0.066L70.412,11h3.484L70.412,23.839z"/>
	<path d="M84.384,19.801c-0.32,2.63-2.25,4.314-4.962,4.314c-3.315,0-5.311-2.503-5.311-6.633c0-4.141,2.015-6.76,5.198-6.76
		c3.126,0,5.141,2.515,5.141,6.425v1.165h-7.09v0.254c0,1.569,0.857,2.641,2.109,2.641c0.923,0,1.648-0.531,1.902-1.407
		L84.384,19.801L84.384,19.801z M77.398,15.972h3.898c-0.066-1.419-0.828-2.342-1.939-2.342
		C78.283,13.63,77.482,14.599,77.398,15.972z"/>
	<path d="M85.786,11h3.239v2.411h0.066c0.377-1.707,1.234-2.584,2.476-2.584c0.311,0,0.622,0.069,0.848,0.162v3.507
		c-0.283-0.15-0.697-0.231-1.074-0.231c-1.431,0-2.222,0.992-2.222,2.791v6.783h-3.333V11z"/>
	<path d="M97.64,8.162V11h1.892v3.022H97.64v5.479c0,0.9,0.395,1.35,1.215,1.35c0.273,0,0.481-0.023,0.678-0.058v2.907
		c-0.329,0.092-0.819,0.162-1.468,0.162c-2.693,0-3.757-1.027-3.757-3.541v-6.298h-1.403V11h1.403V8.162
		C94.307,8.162,97.64,8.162,97.64,8.162z"/>
	<path d="M110.85,19.801c-0.32,2.63-2.25,4.314-4.962,4.314c-3.315,0-5.311-2.503-5.311-6.633c0-4.141,2.015-6.76,5.198-6.76
		c3.126,0,5.141,2.515,5.141,6.425v1.165h-7.09v0.254c0,1.569,0.857,2.641,2.109,2.641c0.922,0,1.647-0.531,1.902-1.407
		L110.85,19.801L110.85,19.801z M103.863,15.972h3.898c-0.066-1.419-0.828-2.342-1.939-2.342
		C104.748,13.63,103.948,14.599,103.863,15.972z"/>
	<path d="M111.922,17.391c0-4.072,1.61-6.564,4.218-6.564c1.525,0,2.684,0.992,3.145,2.423h0.066V6.363h3.343v17.476h-3.324v-2.203
		h-0.057c-0.433,1.373-1.647,2.376-3.201,2.376C113.513,24.012,111.922,21.509,111.922,17.391z M115.33,17.414
		c0,2.099,0.772,3.38,2.024,3.38c1.243,0,2.015-1.28,2.015-3.368c0-2.076-0.772-3.38-2.015-3.38
		C116.112,14.045,115.33,15.337,115.33,17.414z"/>
</g>
</svg>
